<svg width="44" height="50" viewBox="0 0 44 50" fill="none" xmlns="http://www.w3.org/2000/svg">
<path d="M41.9916 34.5212C41.8063 34.298 41.6244 34.0748 41.4458 33.8594C38.9905 30.8895 37.505 29.0971 37.505 20.6897C37.505 16.3371 36.4637 12.7656 34.4112 10.0871C32.8978 8.10826 30.8521 6.60714 28.1556 5.49777C28.1209 5.47847 28.0899 5.45315 28.0641 5.42299C27.0942 2.17522 24.4402 0 21.4469 0C18.4536 0 15.8007 2.17522 14.8309 5.41964C14.805 5.44869 14.7744 5.47321 14.7405 5.49219C8.44804 8.08259 5.39 13.0525 5.39 20.6864C5.39 29.0971 3.90675 30.8895 1.44916 33.856C1.27058 34.0714 1.08866 34.2902 0.903397 34.5179C0.424826 35.095 0.121612 35.7972 0.0296396 36.5413C-0.0623332 37.2854 0.0607849 38.0402 0.384424 38.7165C1.07304 40.1674 2.54067 41.0681 4.2159 41.0681H38.6902C40.3576 41.0681 41.8152 40.1685 42.5061 38.7243C42.8311 38.0479 42.9554 37.2924 42.8642 36.5474C42.773 35.8025 42.4702 35.0993 41.9916 34.5212ZM21.4469 50C23.0597 49.9987 24.642 49.5609 26.0261 48.7331C27.4102 47.9053 28.5445 46.7183 29.3085 45.298C29.3445 45.2299 29.3623 45.1537 29.3601 45.0767C29.358 44.9998 29.3359 44.9247 29.2962 44.8587C29.2564 44.7928 29.2003 44.7383 29.1332 44.7004C29.0661 44.6626 28.9904 44.6428 28.9134 44.6429H13.9826C13.9055 44.6426 13.8297 44.6623 13.7625 44.7C13.6953 44.7378 13.639 44.7923 13.5991 44.8583C13.5592 44.9242 13.537 44.9994 13.5348 45.0765C13.5326 45.1535 13.5504 45.2298 13.5864 45.298C14.3504 46.7181 15.4845 47.905 16.8684 48.7328C18.2522 49.5606 19.8344 49.9985 21.4469 50Z" fill="white"/>
<circle cx="34" cy="13" r="8" fill="#DF1A35" stroke="#2E2E2E" stroke-width="4"/>
</svg>
