<svg width="195" height="203" viewBox="0 0 195 203" fill="none" xmlns="http://www.w3.org/2000/svg">
<path d="M190.103 105.689C190.103 126.565 183.083 146.835 170.172 163.239C157.26 179.644 139.208 191.23 118.916 196.135C98.6244 201.041 77.2727 198.98 58.2937 190.285C39.3146 181.589 23.8109 166.764 14.2751 148.193C4.73918 129.622 1.72518 108.384 5.71761 87.8934C9.71004 67.4026 20.4769 48.8495 36.2873 35.217C52.0977 21.5845 72.033 13.6645 92.8883 12.7305" stroke="#964D9F" stroke-width="8" stroke-linecap="round"/>
<circle cx="97.1906" cy="104.191" r="73.1906" stroke="#DF1A35" stroke-width="8"/>
<path d="M79.205 96.395C79.205 97.3862 79.3645 98.2065 79.6835 98.856C80.2759 100.052 81.3526 100.65 82.9135 100.65C83.8705 100.65 84.7022 100.326 85.4086 99.6763C86.1264 99.0155 86.4853 98.0698 86.4853 96.8394C86.4853 95.2101 85.8244 94.1221 84.5028 93.5752C83.7509 93.2676 82.566 93.1138 80.9481 93.1138V89.6274C82.5318 89.6047 83.6369 89.4508 84.2636 89.166C85.3459 88.6875 85.8871 87.7191 85.8871 86.2607C85.8871 85.3151 85.608 84.5461 85.0497 83.9536C84.5028 83.3612 83.7281 83.0649 82.7255 83.0649C81.5748 83.0649 80.726 83.4295 80.1791 84.1587C79.6436 84.8879 79.3873 85.862 79.4101 87.0811H74.8642C74.9097 85.8506 75.1205 84.6828 75.4965 83.5776C75.8952 82.6092 76.5219 81.7148 77.3764 80.8945C78.0144 80.3135 78.772 79.8691 79.6493 79.5615C80.5266 79.2539 81.6033 79.1001 82.8793 79.1001C85.2491 79.1001 87.1575 79.7153 88.6044 80.9458C90.0627 82.1649 90.7919 83.8055 90.7919 85.8677C90.7919 87.326 90.359 88.5565 89.4931 89.5591C88.9462 90.1857 88.3765 90.613 87.7841 90.8408C88.2284 90.8408 88.8664 91.2225 89.6981 91.9858C90.94 93.1366 91.5609 94.7088 91.5609 96.7026C91.5609 98.799 90.8318 100.645 89.3734 102.24C87.9265 103.823 85.7789 104.615 82.9306 104.615C79.4215 104.615 76.9833 103.47 75.6161 101.18C74.8983 99.9611 74.4996 98.366 74.4198 96.395H79.205ZM100.474 78.0405H104.524L94.7314 104H90.7153L100.474 78.0405ZM120.324 98.668H117.521V104H112.753V98.668H102.943V94.4126L112.052 79.3735H117.521V94.8569H120.324V98.668ZM112.753 94.8569V84.1587L106.549 94.8569H112.753ZM46.0923 126.201H50.6577L48.4116 119.121L46.0923 126.201ZM46.3242 115.007H50.5723L56.9443 133H52.8672L51.7075 129.301H45.0791L43.834 133H39.9033L46.3242 115.007ZM65.8984 119.401C67.6481 119.401 69.0153 120.032 70 121.293C70.9928 122.555 71.4893 124.182 71.4893 126.176C71.4893 128.243 71.001 129.956 70.0244 131.315C69.0479 132.674 67.6847 133.354 65.9351 133.354C64.8364 133.354 63.9535 133.134 63.2861 132.695C62.8874 132.434 62.4561 131.979 61.9922 131.328V133H58.5864V115.031H62.0532V121.428C62.4927 120.809 62.9769 120.337 63.5059 120.012C64.1325 119.605 64.93 119.401 65.8984 119.401ZM65.0073 130.485C65.9025 130.485 66.5983 130.123 67.0947 129.399C67.5911 128.675 67.8394 127.722 67.8394 126.542C67.8394 125.598 67.7173 124.817 67.4731 124.199C67.0093 123.027 66.1548 122.441 64.9097 122.441C63.6483 122.441 62.7816 123.015 62.3096 124.162C62.0654 124.772 61.9434 125.562 61.9434 126.53C61.9434 127.67 62.1956 128.614 62.7002 129.362C63.2048 130.111 63.9738 130.485 65.0073 130.485ZM76.4517 128.752C76.5249 129.37 76.6836 129.81 76.9277 130.07C77.359 130.534 78.1566 130.766 79.3203 130.766C80.0039 130.766 80.5451 130.664 80.9438 130.461C81.3507 130.257 81.5542 129.952 81.5542 129.545C81.5542 129.155 81.3914 128.858 81.0659 128.654C80.7404 128.451 79.5319 128.101 77.4404 127.604C75.9349 127.23 74.8729 126.762 74.2544 126.201C73.6359 125.647 73.3267 124.85 73.3267 123.808C73.3267 122.579 73.8068 121.525 74.7671 120.646C75.7355 119.759 77.0946 119.316 78.8442 119.316C80.5044 119.316 81.8553 119.65 82.897 120.317C83.9468 120.976 84.549 122.119 84.7036 123.747H81.2246C81.1758 123.299 81.0496 122.945 80.8462 122.685C80.4637 122.213 79.8127 121.977 78.8931 121.977C78.1362 121.977 77.5951 122.095 77.2695 122.331C76.9521 122.567 76.7935 122.844 76.7935 123.161C76.7935 123.56 76.9644 123.849 77.3062 124.028C77.6479 124.215 78.8564 124.536 80.9316 124.992C82.3151 125.318 83.3527 125.81 84.0444 126.469C84.728 127.137 85.0698 127.971 85.0698 128.972C85.0698 130.29 84.5775 131.368 83.5928 132.207C82.6162 133.037 81.1025 133.452 79.0518 133.452C76.9603 133.452 75.4141 133.012 74.4131 132.133C73.4202 131.246 72.9238 130.119 72.9238 128.752H76.4517ZM92.6567 122.209C91.8511 122.209 91.2244 122.461 90.7769 122.966C90.3374 123.47 90.0607 124.154 89.9468 125.017H95.3545C95.2975 124.097 95.0168 123.401 94.5122 122.929C94.0158 122.449 93.3973 122.209 92.6567 122.209ZM92.6567 119.34C93.7635 119.34 94.7604 119.548 95.6475 119.963C96.5345 120.378 97.2669 121.033 97.8447 121.928C98.3656 122.718 98.7033 123.633 98.8579 124.675C98.9474 125.285 98.984 126.164 98.9678 127.312H89.8613C89.9102 128.646 90.3293 129.582 91.1187 130.119C91.5988 130.453 92.1766 130.62 92.8521 130.62C93.5682 130.62 94.1501 130.416 94.5977 130.009C94.8418 129.79 95.0575 129.484 95.2446 129.094H98.7969C98.7074 129.883 98.2964 130.685 97.564 131.499C96.4246 132.792 94.8296 133.439 92.7788 133.439C91.0861 133.439 89.5928 132.894 88.2988 131.804C87.0049 130.713 86.3579 128.939 86.3579 126.481C86.3579 124.178 86.9398 122.412 88.1035 121.184C89.2754 119.955 90.7931 119.34 92.6567 119.34ZM108.447 119.377C109.822 119.377 110.945 119.739 111.816 120.463C112.695 121.18 113.134 122.372 113.134 124.04V133H109.57V124.907C109.57 124.207 109.476 123.67 109.289 123.295C108.947 122.612 108.296 122.27 107.336 122.27C106.156 122.27 105.346 122.771 104.907 123.771C104.679 124.3 104.565 124.976 104.565 125.798V133H101.098V119.719H104.455V121.66C104.903 120.976 105.326 120.484 105.725 120.183C106.441 119.646 107.348 119.377 108.447 119.377ZM124.054 124.467C123.989 123.971 123.822 123.523 123.553 123.125C123.163 122.587 122.556 122.319 121.734 122.319C120.562 122.319 119.761 122.901 119.33 124.064C119.102 124.683 118.988 125.505 118.988 126.53C118.988 127.507 119.102 128.292 119.33 128.886C119.745 129.993 120.526 130.546 121.673 130.546C122.487 130.546 123.065 130.327 123.407 129.887C123.749 129.448 123.956 128.878 124.029 128.178H127.582C127.5 129.236 127.118 130.237 126.434 131.181C125.344 132.703 123.728 133.464 121.588 133.464C119.448 133.464 117.873 132.829 116.864 131.56C115.855 130.29 115.35 128.642 115.35 126.616C115.35 124.329 115.908 122.551 117.022 121.281C118.137 120.012 119.675 119.377 121.637 119.377C123.305 119.377 124.668 119.751 125.726 120.5C126.792 121.249 127.423 122.571 127.618 124.467H124.054ZM135.022 122.209C134.216 122.209 133.59 122.461 133.142 122.966C132.703 123.47 132.426 124.154 132.312 125.017H137.72C137.663 124.097 137.382 123.401 136.877 122.929C136.381 122.449 135.763 122.209 135.022 122.209ZM135.022 119.34C136.129 119.34 137.126 119.548 138.013 119.963C138.9 120.378 139.632 121.033 140.21 121.928C140.731 122.718 141.069 123.633 141.223 124.675C141.313 125.285 141.349 126.164 141.333 127.312H132.227C132.275 128.646 132.694 129.582 133.484 130.119C133.964 130.453 134.542 130.62 135.217 130.62C135.933 130.62 136.515 130.416 136.963 130.009C137.207 129.79 137.423 129.484 137.61 129.094H141.162C141.073 129.883 140.662 130.685 139.929 131.499C138.79 132.792 137.195 133.439 135.144 133.439C133.451 133.439 131.958 132.894 130.664 131.804C129.37 130.713 128.723 128.939 128.723 126.481C128.723 124.178 129.305 122.412 130.469 121.184C131.641 119.955 133.158 119.34 135.022 119.34ZM146.149 128.752C146.222 129.37 146.381 129.81 146.625 130.07C147.056 130.534 147.854 130.766 149.018 130.766C149.701 130.766 150.242 130.664 150.641 130.461C151.048 130.257 151.251 129.952 151.251 129.545C151.251 129.155 151.089 128.858 150.763 128.654C150.438 128.451 149.229 128.101 147.138 127.604C145.632 127.23 144.57 126.762 143.952 126.201C143.333 125.647 143.024 124.85 143.024 123.808C143.024 122.579 143.504 121.525 144.464 120.646C145.433 119.759 146.792 119.316 148.542 119.316C150.202 119.316 151.553 119.65 152.594 120.317C153.644 120.976 154.246 122.119 154.401 123.747H150.922C150.873 123.299 150.747 122.945 150.543 122.685C150.161 122.213 149.51 121.977 148.59 121.977C147.833 121.977 147.292 122.095 146.967 122.331C146.649 122.567 146.491 122.844 146.491 123.161C146.491 123.56 146.662 123.849 147.003 124.028C147.345 124.215 148.554 124.536 150.629 124.992C152.012 125.318 153.05 125.81 153.742 126.469C154.425 127.137 154.767 127.971 154.767 128.972C154.767 130.29 154.275 131.368 153.29 132.207C152.313 133.037 150.8 133.452 148.749 133.452C146.658 133.452 145.111 133.012 144.11 132.133C143.118 131.246 142.621 130.119 142.621 128.752H146.149Z" fill="white"/>
<circle cx="97.9623" cy="12.6889" r="10.1889" fill="#FEAC3C" stroke="#2E2E2E" stroke-width="5"/>
</svg>
