<svg width="62" height="62" viewBox="0 0 62 62" fill="none" xmlns="http://www.w3.org/2000/svg">
<path d="M0 31C0 13.8792 13.8792 0 31 0C48.1208 0 62 13.8792 62 31C62 48.1208 48.1208 62 31 62C13.8792 62 0 48.1208 0 31Z" fill="white"/>
<path d="M31 0C13.8792 0 0 13.8792 0 31C0 48.1208 13.8792 62 31 62C48.1208 62 62 48.1208 62 31C62 13.8792 48.1208 0 31 0ZM20.1166 11.447H23.3331V17.5736H20.1166V11.447ZM38.6666 11.447H41.8794V17.5736H38.6666V11.447ZM13.5392 14.3911H17.8191V19.8706H25.6297V14.3911H36.3656V19.8706H44.1799V14.3911H48.4599V22.9695H13.5391L13.5392 14.3911ZM13.5392 25.2213H48.4599V50.5526H13.5392V25.2213ZM27.2566 31.0755C24.8031 31.088 22.4887 32.3444 22.428 35.1624H25.2246C25.2374 34.0447 25.921 33.3378 27.1658 33.2627C28.3344 33.2779 28.8267 34.1364 28.8801 35.3403C28.8661 36.977 26.9796 37.2193 25.6068 37.1907V39.4007C26.4466 39.4016 27.4089 39.3604 28.2708 39.7185C28.939 40.0146 29.2199 40.8006 29.2206 41.569C29.2081 42.8411 28.6098 43.8348 27.0977 43.9379C25.9084 43.9215 25.3304 42.9918 25.27 41.7696H22.428C22.428 44.6728 24.0376 46.1252 27.2566 46.1252C28.3981 46.1174 29.5629 45.6909 30.5262 44.9293C30.9948 44.5445 31.3748 44.0628 31.6399 43.5175C31.9051 42.9721 32.0493 42.3758 32.0625 41.7695C32.0515 39.9005 30.8461 38.7504 29.0162 38.2729C29.9912 37.9308 30.9857 37.4003 31.4759 36.3808C31.8674 35.4971 31.6996 34.4844 31.3851 33.5351C30.7163 31.9461 29.0341 31.093 27.2566 31.0755ZM37.0654 31.3479C36.1027 32.2806 34.884 33.0317 33.4099 33.6033V36.0857C34.6734 35.7097 35.8231 35.0773 36.8611 34.1898V45.8562H39.5705V31.3478L37.0654 31.3479Z" fill="#DF1A35"/>
</svg>
