<svg width="62" height="62" viewBox="0 0 62 62" fill="none" xmlns="http://www.w3.org/2000/svg">
<path d="M0 31C0 13.8792 13.8792 0 31 0C48.1208 0 62 13.8792 62 31C62 48.1208 48.1208 62 31 62C13.8792 62 0 48.1208 0 31Z" fill="white"/>
<path d="M31 0C13.8792 0 0 13.8792 0 31C0 48.1208 13.8792 62 31 62C48.1208 62 62 48.1208 62 31C62 13.8792 48.1208 0 31 0ZM30.7502 7.93543C32.4862 7.93543 34.1502 8.11006 35.7416 8.46145C37.3329 8.81247 38.8548 9.32103 40.3015 9.98267C40.0948 9.94134 39.8261 9.87991 39.4954 9.79724C37.839 9.46869 36.3095 9.32428 34.7803 10.3535C33.8395 10.94 32.8075 11.3916 31.6206 11.345C30.2152 11.345 28.8007 11.1089 27.3747 10.6335C25.9487 10.1581 24.6762 9.63036 23.5603 9.05174C25.8336 8.30774 28.2289 7.93543 30.7502 7.93543ZM17.3429 12.6657C17.7369 12.6673 18.1127 12.7115 18.4743 12.8019C19.053 12.9466 19.4484 13.2479 19.655 13.7026C19.9444 14.2812 20.3456 14.8186 20.8622 15.3146C21.3788 15.8106 21.9258 16.2444 22.5045 16.6164C22.8351 16.699 23.1039 16.7797 23.3106 16.8623C23.9245 17.0784 24.2548 17.6578 24.9226 17.6684C25.4186 17.5031 25.8139 17.6297 26.1033 18.043C27.0165 18.5011 27.8255 19.1368 28.3965 20.0259C27.8366 20.9579 27.196 21.9779 26.1638 22.5046C26.2052 22.5046 26.2244 22.518 26.2244 22.5387C26.2244 22.5593 26.2474 22.5689 26.2887 22.5689C26.4543 22.8583 26.3698 23.0847 26.039 23.2501C25.8323 23.3328 25.6384 23.3942 25.4524 23.4355C25.2664 23.4769 25.0687 23.519 24.8621 23.5604C24.3247 23.6431 23.9716 23.7467 23.8062 23.8707C23.8062 23.9534 23.7449 23.9956 23.6208 23.9956C23.6208 24.0369 23.4883 24.1694 23.2197 24.3967C22.951 24.6241 22.7342 25.0905 22.5688 25.7931C22.5274 25.9584 22.443 26.1235 22.319 26.2888C22.443 27.4462 22.4756 28.3463 22.4136 28.987C22.3516 29.6276 22.0925 30.0095 21.6378 30.1335C21.4313 30.1749 21.1627 30.1327 20.8318 30.0087C20.5424 29.926 20.1797 29.7706 19.7457 29.5432C19.3117 29.3158 18.8069 28.9531 18.2283 28.4571C18.3129 29.2077 18.5341 29.9805 18.7846 30.7503C19.3163 30.6459 20.2317 30.7064 19.8404 31.4958C19.5602 31.7796 19.6368 31.9722 20.0258 32.1165C20.1908 32.1578 20.3558 32.3037 20.5215 32.5517C21.163 32.6083 21.8218 32.623 22.5385 32.4873C23.1379 32.4047 23.7751 32.3854 24.4571 32.4268C25.1391 32.4681 25.8127 32.6236 26.4741 32.8922C28.3591 33.6803 29.8886 36.1646 31.9611 37.0775C32.4775 37.4082 32.9017 37.7384 33.2326 38.069C33.5632 38.3996 33.7283 38.7719 33.7283 39.1853C33.7249 40.619 33.5987 42.0782 33.2326 43.5258C33.1086 43.8978 32.7266 44.4121 32.086 45.0735C31.4455 45.7348 30.7104 46.3566 29.8836 46.9353C29.5549 47.1813 29.2631 47.4731 29.017 47.8018C28.8104 48.0912 28.6127 48.4635 28.4267 48.9182C28.2407 49.3728 28.1467 49.9102 28.1467 50.5302C27.816 51.1502 27.5377 51.7202 27.3103 52.2369C27.0829 52.7535 26.8891 53.1739 26.7238 53.5046C26.5584 53.9592 26.3896 54.3316 26.2242 54.6209C24.579 54.5252 23.0426 53.9091 21.5129 53.0088C21.6915 50.07 22.2768 47.157 22.5687 44.2674C22.6514 43.978 22.6284 43.7093 22.5044 43.4613C21.1752 40.8196 19.6159 39.4995 19.9652 35.8362C20.0479 35.4229 20.0863 35.1119 20.0863 34.9053C19.5398 34.3668 18.7782 33.9484 18.2283 33.2932C14.4719 31.5326 10.5593 31.3978 7.8104 27.4656C8.26507 24.4483 9.26884 21.6806 10.8188 19.1593C12.3688 16.638 14.3015 14.4884 16.6162 12.711C16.8644 12.68 17.1065 12.6647 17.3429 12.6657ZM45.6939 13.3317C48.2566 15.481 50.2833 18.0836 51.7713 21.1422C53.2593 24.2008 54.0002 27.548 54.0002 31.1854V31.6206L52.0173 32.2412C51.1783 32.0101 50.2844 32.6179 49.9095 33.4181L50.9653 33.789C51.1307 33.8716 51.2343 33.9561 51.2757 34.0387C51.5053 34.6271 51.2626 35.342 51.0864 35.9611C50.7549 36.3983 50.2106 36.8089 49.7847 37.2628C49.7433 37.4695 49.7242 37.7804 49.7242 38.1938C49.7242 38.8551 49.4555 39.6612 48.9181 40.6119C49.0008 40.9012 49.0008 41.1699 48.9181 41.4179C48.7948 41.9541 48.6081 42.4737 48.3618 42.9656C48.0732 43.4616 47.9043 43.9184 47.8623 44.3317C47.697 45.4478 47.2018 46.4803 46.3751 47.4309C45.2591 48.5883 44.288 49.1027 43.4613 48.9787C43.0893 48.896 42.811 48.6599 42.625 48.2672C42.0144 46.9736 41.6338 45.6194 40.9827 44.2068C40.5424 43.0333 40.8622 41.6816 40.9524 40.4226C40.9859 39.4892 40.3653 38.6405 40.1766 37.7283C40.1351 37.4183 40.2158 36.9942 40.4226 36.4568C40.3819 36.4154 40.188 36.3407 39.836 36.2373C37.9602 35.7117 36.5966 36.7157 34.9998 35.2761C34.3592 34.6975 33.935 33.8722 33.7284 32.7975C33.4804 31.3095 33.7682 29.9659 34.5949 28.7673C34.6363 28.6433 34.6592 28.5205 34.6592 28.3965C34.6592 28.1071 34.6785 27.8999 34.7198 27.7758C34.9254 27.7345 35.1 27.6501 35.2458 27.5261C35.3894 27.4021 35.5026 27.2793 35.5864 27.1552C35.7104 26.99 35.7948 26.825 35.8362 26.6595C40.2494 26.257 41.192 25.4337 45.1377 27.7758L46.9351 26.5346C46.5218 25.8319 46.1591 25.3175 45.8491 24.9869C44.8024 23.8876 43.481 23.6984 42.4092 24.9869L38.0688 24.6122C37.5005 25.1697 36.5085 25.1869 35.7112 25.2329C35.7112 24.8609 35.6076 24.4886 35.4009 24.1166C35.1529 23.6205 35.03 23.229 35.03 22.9397C35.03 22.6506 35.0914 22.4241 35.2155 22.2585C36.5301 20.5261 36.2701 20.4046 36.7973 18.1035C36.9833 17.5661 37.323 16.9059 37.819 16.1206C38.9777 14.4765 43.3895 13.572 45.6939 13.3317Z" fill="#01AA4F"/>
</svg>
