<svg width="360" height="72" viewBox="0 0 360 72" fill="none" xmlns="http://www.w3.org/2000/svg">
<rect width="360" height="72" rx="30" fill="#FFC811"/>
<path d="M48.3711 40.5664H54.2109C54.0938 42.4805 53.5664 44.1797 52.6289 45.6641C51.7044 47.1484 50.4089 48.3073 48.7422 49.1406C47.0885 49.974 45.0964 50.3906 42.7656 50.3906C40.9427 50.3906 39.3086 50.0781 37.8633 49.4531C36.418 48.8151 35.181 47.9036 34.1523 46.7188C33.1367 45.5339 32.362 44.1016 31.8281 42.4219C31.2943 40.7422 31.0273 38.8607 31.0273 36.7773V34.8047C31.0273 32.7214 31.3008 30.8398 31.8477 29.1602C32.4076 27.4674 33.2018 26.0286 34.2305 24.8438C35.2721 23.6589 36.5156 22.7474 37.9609 22.1094C39.4062 21.4714 41.0208 21.1523 42.8047 21.1523C45.1745 21.1523 47.1732 21.582 48.8008 22.4414C50.4414 23.3008 51.7109 24.4857 52.6094 25.9961C53.5208 27.5065 54.0677 29.2253 54.25 31.1523H48.3906C48.3255 30.0065 48.0977 29.0365 47.707 28.2422C47.3164 27.4349 46.724 26.8294 45.9297 26.4258C45.1484 26.0091 44.1068 25.8008 42.8047 25.8008C41.8281 25.8008 40.9753 25.9831 40.2461 26.3477C39.5169 26.7122 38.9049 27.2656 38.4102 28.0078C37.9154 28.75 37.5443 29.6875 37.2969 30.8203C37.0625 31.9401 36.9453 33.2552 36.9453 34.7656V36.7773C36.9453 38.2487 37.056 39.5443 37.2773 40.6641C37.4987 41.7708 37.8372 42.7083 38.293 43.4766C38.7617 44.2318 39.3607 44.8047 40.0898 45.1953C40.832 45.5729 41.724 45.7617 42.7656 45.7617C43.9896 45.7617 44.9987 45.5664 45.793 45.1758C46.5872 44.7852 47.1927 44.2057 47.6094 43.4375C48.0391 42.6693 48.293 41.7122 48.3711 40.5664ZM56.4086 39.6484V39.2383C56.4086 37.6888 56.6299 36.263 57.0727 34.9609C57.5154 33.6458 58.1599 32.5065 59.0062 31.543C59.8526 30.5794 60.8943 29.8307 62.1312 29.2969C63.3682 28.75 64.7875 28.4766 66.3891 28.4766C67.9906 28.4766 69.4164 28.75 70.6664 29.2969C71.9164 29.8307 72.9646 30.5794 73.8109 31.543C74.6703 32.5065 75.3214 33.6458 75.7641 34.9609C76.2068 36.263 76.4281 37.6888 76.4281 39.2383V39.6484C76.4281 41.1849 76.2068 42.6107 75.7641 43.9258C75.3214 45.2279 74.6703 46.3672 73.8109 47.3438C72.9646 48.3073 71.9229 49.056 70.6859 49.5898C69.449 50.1237 68.0297 50.3906 66.4281 50.3906C64.8266 50.3906 63.4008 50.1237 62.1508 49.5898C60.9138 49.056 59.8656 48.3073 59.0062 47.3438C58.1599 46.3672 57.5154 45.2279 57.0727 43.9258C56.6299 42.6107 56.4086 41.1849 56.4086 39.6484ZM62.0336 39.2383V39.6484C62.0336 40.5339 62.1117 41.3607 62.268 42.1289C62.4242 42.8971 62.6716 43.5742 63.0102 44.1602C63.3617 44.7331 63.8174 45.1823 64.3773 45.5078C64.9372 45.8333 65.6208 45.9961 66.4281 45.9961C67.2094 45.9961 67.8799 45.8333 68.4398 45.5078C68.9997 45.1823 69.449 44.7331 69.7875 44.1602C70.126 43.5742 70.3734 42.8971 70.5297 42.1289C70.699 41.3607 70.7836 40.5339 70.7836 39.6484V39.2383C70.7836 38.3789 70.699 37.5716 70.5297 36.8164C70.3734 36.0482 70.1195 35.3711 69.768 34.7852C69.4294 34.1862 68.9802 33.7174 68.4203 33.3789C67.8604 33.0404 67.1833 32.8711 66.3891 32.8711C65.5948 32.8711 64.9177 33.0404 64.3578 33.3789C63.8109 33.7174 63.3617 34.1862 63.0102 34.7852C62.6716 35.3711 62.4242 36.0482 62.268 36.8164C62.1117 37.5716 62.0336 38.3789 62.0336 39.2383ZM91.9852 44.9414V28.8672H97.6102V50H92.3172L91.9852 44.9414ZM92.6102 40.6055L94.2703 40.5664C94.2703 41.9727 94.1075 43.2812 93.782 44.4922C93.4565 45.6901 92.9682 46.7318 92.3172 47.6172C91.6661 48.4896 90.8458 49.1732 89.8562 49.668C88.8667 50.1497 87.7013 50.3906 86.3602 50.3906C85.3315 50.3906 84.381 50.2474 83.5086 49.9609C82.6492 49.6615 81.907 49.1992 81.282 48.5742C80.67 47.9362 80.1883 47.1224 79.8367 46.1328C79.4982 45.1302 79.3289 43.9258 79.3289 42.5195V28.8672H84.9539V42.5586C84.9539 43.1836 85.0255 43.7109 85.1687 44.1406C85.325 44.5703 85.5398 44.9219 85.8133 45.1953C86.0867 45.4688 86.4057 45.6641 86.7703 45.7812C87.1479 45.8984 87.5646 45.957 88.0203 45.957C89.1792 45.957 90.0906 45.7227 90.7547 45.2539C91.4318 44.7852 91.907 44.1471 92.1805 43.3398C92.4669 42.5195 92.6102 41.6081 92.6102 40.6055ZM107.132 33.4766V50H101.507V28.8672H106.8L107.132 33.4766ZM113.499 28.7305L113.402 33.9453C113.128 33.9062 112.796 33.8737 112.405 33.8477C112.028 33.8086 111.683 33.7891 111.37 33.7891C110.576 33.7891 109.886 33.8932 109.3 34.1016C108.727 34.2969 108.245 34.5898 107.855 34.9805C107.477 35.3711 107.191 35.8464 106.995 36.4062C106.813 36.9661 106.709 37.6042 106.683 38.3203L105.55 37.9688C105.55 36.6016 105.687 35.3451 105.96 34.1992C106.234 33.0404 106.631 32.0312 107.152 31.1719C107.685 30.3125 108.336 29.6484 109.105 29.1797C109.873 28.7109 110.752 28.4766 111.741 28.4766C112.054 28.4766 112.373 28.5026 112.698 28.5547C113.024 28.5938 113.291 28.6523 113.499 28.7305ZM127.181 44.1602C127.181 43.7565 127.064 43.3919 126.83 43.0664C126.595 42.7409 126.159 42.4414 125.521 42.168C124.896 41.8815 123.991 41.6211 122.806 41.3867C121.739 41.1523 120.742 40.8594 119.818 40.5078C118.907 40.1432 118.112 39.707 117.435 39.1992C116.771 38.6914 116.25 38.0924 115.873 37.4023C115.495 36.6992 115.306 35.8984 115.306 35C115.306 34.1146 115.495 33.2812 115.873 32.5C116.263 31.7188 116.817 31.0286 117.533 30.4297C118.262 29.8177 119.147 29.3424 120.189 29.0039C121.244 28.6523 122.429 28.4766 123.744 28.4766C125.58 28.4766 127.155 28.7695 128.47 29.3555C129.798 29.9414 130.814 30.7487 131.517 31.7773C132.233 32.793 132.591 33.9518 132.591 35.2539H126.966C126.966 34.707 126.849 34.2188 126.615 33.7891C126.393 33.3464 126.042 33.0013 125.56 32.7539C125.091 32.4935 124.479 32.3633 123.724 32.3633C123.099 32.3633 122.559 32.474 122.103 32.6953C121.647 32.9036 121.296 33.1901 121.048 33.5547C120.814 33.9062 120.697 34.2969 120.697 34.7266C120.697 35.0521 120.762 35.3451 120.892 35.6055C121.035 35.8529 121.263 36.0807 121.576 36.2891C121.888 36.4974 122.292 36.6927 122.787 36.875C123.295 37.0443 123.92 37.2005 124.662 37.3438C126.185 37.6562 127.546 38.0664 128.744 38.5742C129.942 39.069 130.892 39.7461 131.595 40.6055C132.298 41.4518 132.65 42.5651 132.65 43.9453C132.65 44.8828 132.442 45.7422 132.025 46.5234C131.608 47.3047 131.009 47.9883 130.228 48.5742C129.447 49.1471 128.509 49.5964 127.416 49.9219C126.335 50.2344 125.117 50.3906 123.763 50.3906C121.797 50.3906 120.13 50.0391 118.763 49.3359C117.409 48.6328 116.38 47.7409 115.677 46.6602C114.987 45.5664 114.642 44.4466 114.642 43.3008H119.974C120 44.069 120.196 44.6875 120.56 45.1562C120.938 45.625 121.413 45.9635 121.986 46.1719C122.572 46.3802 123.203 46.4844 123.88 46.4844C124.61 46.4844 125.215 46.3867 125.697 46.1914C126.179 45.9831 126.543 45.7096 126.791 45.3711C127.051 45.0195 127.181 44.6159 127.181 44.1602ZM145.629 50.3906C143.988 50.3906 142.517 50.1302 141.215 49.6094C139.913 49.0755 138.806 48.3398 137.895 47.4023C136.996 46.4648 136.306 45.3776 135.824 44.1406C135.342 42.8906 135.102 41.5625 135.102 40.1562V39.375C135.102 37.7734 135.329 36.3086 135.785 34.9805C136.241 33.6523 136.892 32.5 137.738 31.5234C138.598 30.5469 139.639 29.7982 140.863 29.2773C142.087 28.7435 143.467 28.4766 145.004 28.4766C146.501 28.4766 147.829 28.724 148.988 29.2188C150.147 29.7135 151.117 30.4167 151.898 31.3281C152.693 32.2396 153.292 33.3333 153.695 34.6094C154.099 35.8724 154.301 37.2786 154.301 38.8281V41.1719H137.504V37.4219H148.773V36.9922C148.773 36.2109 148.63 35.5143 148.344 34.9023C148.07 34.2773 147.654 33.7826 147.094 33.418C146.534 33.0534 145.818 32.8711 144.945 32.8711C144.203 32.8711 143.565 33.0339 143.031 33.3594C142.497 33.6849 142.061 34.1406 141.723 34.7266C141.397 35.3125 141.15 36.0026 140.98 36.7969C140.824 37.5781 140.746 38.4375 140.746 39.375V40.1562C140.746 41.0026 140.863 41.7839 141.098 42.5C141.345 43.2161 141.69 43.8346 142.133 44.3555C142.589 44.8763 143.135 45.2799 143.773 45.5664C144.424 45.8529 145.16 45.9961 145.98 45.9961C146.996 45.9961 147.94 45.8008 148.812 45.4102C149.698 45.0065 150.46 44.401 151.098 43.5938L153.832 46.5625C153.389 47.2005 152.784 47.8125 152.016 48.3984C151.26 48.9844 150.349 49.4661 149.281 49.8438C148.214 50.2083 146.996 50.3906 145.629 50.3906ZM169.692 21.5625H174.653L181.958 42.4414L189.262 21.5625H194.223L183.95 50H179.966L169.692 21.5625ZM167.016 21.5625H171.958L172.856 41.9141V50H167.016V21.5625ZM191.958 21.5625H196.919V50H191.059V41.9141L191.958 21.5625ZM212.71 45.2344V35.8203C212.71 35.1432 212.599 34.5638 212.378 34.082C212.157 33.5872 211.812 33.2031 211.343 32.9297C210.887 32.6562 210.295 32.5195 209.566 32.5195C208.941 32.5195 208.4 32.6302 207.945 32.8516C207.489 33.0599 207.137 33.3659 206.89 33.7695C206.642 34.1602 206.519 34.6224 206.519 35.1562H200.894C200.894 34.2578 201.102 33.4049 201.519 32.5977C201.935 31.7904 202.541 31.0807 203.335 30.4688C204.129 29.8438 205.073 29.3555 206.167 29.0039C207.274 28.6523 208.511 28.4766 209.878 28.4766C211.519 28.4766 212.977 28.75 214.253 29.2969C215.529 29.8438 216.532 30.6641 217.261 31.7578C218.003 32.8516 218.374 34.2188 218.374 35.8594V44.9023C218.374 46.0612 218.446 47.0117 218.589 47.7539C218.732 48.4831 218.941 49.1211 219.214 49.668V50H213.53C213.257 49.4271 213.049 48.7109 212.905 47.8516C212.775 46.9792 212.71 46.1068 212.71 45.2344ZM213.452 37.1289L213.491 40.3125H210.347C209.605 40.3125 208.96 40.3971 208.413 40.5664C207.866 40.7357 207.417 40.9766 207.066 41.2891C206.714 41.5885 206.454 41.9401 206.284 42.3438C206.128 42.7474 206.05 43.1901 206.05 43.6719C206.05 44.1536 206.161 44.5898 206.382 44.9805C206.603 45.3581 206.922 45.6576 207.339 45.8789C207.756 46.0872 208.244 46.1914 208.804 46.1914C209.65 46.1914 210.386 46.0221 211.011 45.6836C211.636 45.3451 212.118 44.9284 212.456 44.4336C212.808 43.9388 212.99 43.4701 213.003 43.0273L214.488 45.4102C214.279 45.944 213.993 46.4974 213.628 47.0703C213.277 47.6432 212.827 48.1836 212.28 48.6914C211.734 49.1862 211.076 49.5964 210.308 49.9219C209.54 50.2344 208.628 50.3906 207.573 50.3906C206.232 50.3906 205.015 50.1237 203.921 49.5898C202.84 49.043 201.981 48.2943 201.343 47.3438C200.718 46.3802 200.405 45.2865 200.405 44.0625C200.405 42.9557 200.614 41.9727 201.03 41.1133C201.447 40.2539 202.059 39.5312 202.866 38.9453C203.687 38.3464 204.709 37.8971 205.933 37.5977C207.157 37.2852 208.576 37.1289 210.191 37.1289H213.452ZM232.662 28.8672V32.8516H220.357V28.8672H232.662ZM223.404 23.6523H229.029V43.6328C229.029 44.2448 229.107 44.7135 229.263 45.0391C229.433 45.3646 229.68 45.5924 230.005 45.7227C230.331 45.8398 230.741 45.8984 231.236 45.8984C231.587 45.8984 231.9 45.8854 232.173 45.8594C232.46 45.8203 232.701 45.7812 232.896 45.7422L232.916 49.8828C232.434 50.0391 231.913 50.1628 231.353 50.2539C230.793 50.3451 230.175 50.3906 229.498 50.3906C228.261 50.3906 227.18 50.1888 226.255 49.7852C225.344 49.3685 224.641 48.7044 224.146 47.793C223.651 46.8815 223.404 45.6836 223.404 44.1992V23.6523ZM245.191 50.3906C243.551 50.3906 242.079 50.1302 240.777 49.6094C239.475 49.0755 238.368 48.3398 237.457 47.4023C236.559 46.4648 235.868 45.3776 235.387 44.1406C234.905 42.8906 234.664 41.5625 234.664 40.1562V39.375C234.664 37.7734 234.892 36.3086 235.348 34.9805C235.803 33.6523 236.454 32.5 237.301 31.5234C238.16 30.5469 239.202 29.7982 240.426 29.2773C241.65 28.7435 243.03 28.4766 244.566 28.4766C246.064 28.4766 247.392 28.724 248.551 29.2188C249.71 29.7135 250.68 30.4167 251.461 31.3281C252.255 32.2396 252.854 33.3333 253.258 34.6094C253.661 35.8724 253.863 37.2786 253.863 38.8281V41.1719H237.066V37.4219H248.336V36.9922C248.336 36.2109 248.193 35.5143 247.906 34.9023C247.633 34.2773 247.216 33.7826 246.656 33.418C246.096 33.0534 245.38 32.8711 244.508 32.8711C243.766 32.8711 243.128 33.0339 242.594 33.3594C242.06 33.6849 241.624 34.1406 241.285 34.7266C240.96 35.3125 240.712 36.0026 240.543 36.7969C240.387 37.5781 240.309 38.4375 240.309 39.375V40.1562C240.309 41.0026 240.426 41.7839 240.66 42.5C240.908 43.2161 241.253 43.8346 241.695 44.3555C242.151 44.8763 242.698 45.2799 243.336 45.5664C243.987 45.8529 244.723 45.9961 245.543 45.9961C246.559 45.9961 247.503 45.8008 248.375 45.4102C249.26 45.0065 250.022 44.401 250.66 43.5938L253.395 46.5625C252.952 47.2005 252.346 47.8125 251.578 48.3984C250.823 48.9844 249.911 49.4661 248.844 49.8438C247.776 50.2083 246.559 50.3906 245.191 50.3906ZM262.291 33.4766V50H256.666V28.8672H261.959L262.291 33.4766ZM268.659 28.7305L268.561 33.9453C268.288 33.9062 267.955 33.8737 267.565 33.8477C267.187 33.8086 266.842 33.7891 266.53 33.7891C265.735 33.7891 265.045 33.8932 264.459 34.1016C263.886 34.2969 263.405 34.5898 263.014 34.9805C262.636 35.3711 262.35 35.8464 262.155 36.4062C261.972 36.9661 261.868 37.6042 261.842 38.3203L260.709 37.9688C260.709 36.6016 260.846 35.3451 261.12 34.1992C261.393 33.0404 261.79 32.0312 262.311 31.1719C262.845 30.3125 263.496 29.6484 264.264 29.1797C265.032 28.7109 265.911 28.4766 266.901 28.4766C267.213 28.4766 267.532 28.5026 267.858 28.5547C268.183 28.5938 268.45 28.6523 268.659 28.7305ZM276.852 28.8672V50H271.208V28.8672H276.852ZM270.856 23.3594C270.856 22.5391 271.143 21.862 271.716 21.3281C272.289 20.7943 273.057 20.5273 274.02 20.5273C274.971 20.5273 275.733 20.7943 276.305 21.3281C276.891 21.862 277.184 22.5391 277.184 23.3594C277.184 24.1797 276.891 24.8568 276.305 25.3906C275.733 25.9245 274.971 26.1914 274.02 26.1914C273.057 26.1914 272.289 25.9245 271.716 25.3906C271.143 24.8568 270.856 24.1797 270.856 23.3594ZM292.507 45.2344V35.8203C292.507 35.1432 292.396 34.5638 292.175 34.082C291.954 33.5872 291.609 33.2031 291.14 32.9297C290.684 32.6562 290.092 32.5195 289.362 32.5195C288.737 32.5195 288.197 32.6302 287.741 32.8516C287.286 33.0599 286.934 33.3659 286.687 33.7695C286.439 34.1602 286.316 34.6224 286.316 35.1562H280.691C280.691 34.2578 280.899 33.4049 281.316 32.5977C281.732 31.7904 282.338 31.0807 283.132 30.4688C283.926 29.8438 284.87 29.3555 285.964 29.0039C287.071 28.6523 288.308 28.4766 289.675 28.4766C291.316 28.4766 292.774 28.75 294.05 29.2969C295.326 29.8438 296.329 30.6641 297.058 31.7578C297.8 32.8516 298.171 34.2188 298.171 35.8594V44.9023C298.171 46.0612 298.243 47.0117 298.386 47.7539C298.529 48.4831 298.737 49.1211 299.011 49.668V50H293.327C293.054 49.4271 292.846 48.7109 292.702 47.8516C292.572 46.9792 292.507 46.1068 292.507 45.2344ZM293.249 37.1289L293.288 40.3125H290.144C289.402 40.3125 288.757 40.3971 288.21 40.5664C287.663 40.7357 287.214 40.9766 286.862 41.2891C286.511 41.5885 286.251 41.9401 286.081 42.3438C285.925 42.7474 285.847 43.1901 285.847 43.6719C285.847 44.1536 285.958 44.5898 286.179 44.9805C286.4 45.3581 286.719 45.6576 287.136 45.8789C287.553 46.0872 288.041 46.1914 288.601 46.1914C289.447 46.1914 290.183 46.0221 290.808 45.6836C291.433 45.3451 291.915 44.9284 292.253 44.4336C292.605 43.9388 292.787 43.4701 292.8 43.0273L294.284 45.4102C294.076 45.944 293.79 46.4974 293.425 47.0703C293.073 47.6432 292.624 48.1836 292.077 48.6914C291.53 49.1862 290.873 49.5964 290.105 49.9219C289.336 50.2344 288.425 50.3906 287.37 50.3906C286.029 50.3906 284.812 50.1237 283.718 49.5898C282.637 49.043 281.778 48.2943 281.14 47.3438C280.515 46.3802 280.202 45.2865 280.202 44.0625C280.202 42.9557 280.411 41.9727 280.827 41.1133C281.244 40.2539 281.856 39.5312 282.663 38.9453C283.484 38.3464 284.506 37.8971 285.73 37.5977C286.954 37.2852 288.373 37.1289 289.987 37.1289H293.249ZM308.045 20V50H302.4V20H308.045ZM323.719 44.1602C323.719 43.7565 323.602 43.3919 323.367 43.0664C323.133 42.7409 322.697 42.4414 322.059 42.168C321.434 41.8815 320.529 41.6211 319.344 41.3867C318.276 41.1523 317.28 40.8594 316.355 40.5078C315.444 40.1432 314.65 39.707 313.973 39.1992C313.309 38.6914 312.788 38.0924 312.41 37.4023C312.033 36.6992 311.844 35.8984 311.844 35C311.844 34.1146 312.033 33.2812 312.41 32.5C312.801 31.7188 313.354 31.0286 314.07 30.4297C314.799 29.8177 315.685 29.3424 316.727 29.0039C317.781 28.6523 318.966 28.4766 320.281 28.4766C322.117 28.4766 323.693 28.7695 325.008 29.3555C326.336 29.9414 327.352 30.7487 328.055 31.7773C328.771 32.793 329.129 33.9518 329.129 35.2539H323.504C323.504 34.707 323.387 34.2188 323.152 33.7891C322.931 33.3464 322.579 33.0013 322.098 32.7539C321.629 32.4935 321.017 32.3633 320.262 32.3633C319.637 32.3633 319.096 32.474 318.641 32.6953C318.185 32.9036 317.833 33.1901 317.586 33.5547C317.352 33.9062 317.234 34.2969 317.234 34.7266C317.234 35.0521 317.299 35.3451 317.43 35.6055C317.573 35.8529 317.801 36.0807 318.113 36.2891C318.426 36.4974 318.829 36.6927 319.324 36.875C319.832 37.0443 320.457 37.2005 321.199 37.3438C322.723 37.6562 324.083 38.0664 325.281 38.5742C326.479 39.069 327.43 39.7461 328.133 40.6055C328.836 41.4518 329.188 42.5651 329.188 43.9453C329.188 44.8828 328.979 45.7422 328.562 46.5234C328.146 47.3047 327.547 47.9883 326.766 48.5742C325.984 49.1471 325.047 49.5964 323.953 49.9219C322.872 50.2344 321.655 50.3906 320.301 50.3906C318.335 50.3906 316.668 50.0391 315.301 49.3359C313.947 48.6328 312.918 47.7409 312.215 46.6602C311.525 45.5664 311.18 44.4466 311.18 43.3008H316.512C316.538 44.069 316.733 44.6875 317.098 45.1562C317.475 45.625 317.951 45.9635 318.523 46.1719C319.109 46.3802 319.741 46.4844 320.418 46.4844C321.147 46.4844 321.753 46.3867 322.234 46.1914C322.716 45.9831 323.081 45.7096 323.328 45.3711C323.589 45.0195 323.719 44.6159 323.719 44.1602Z" fill="black"/>
</svg>
