<svg width="62" height="62" viewBox="0 0 62 62" fill="none" xmlns="http://www.w3.org/2000/svg">
<path d="M0 31C0 13.8792 13.8792 0 31 0C48.1208 0 62 13.8792 62 31C62 48.1208 48.1208 62 31 62C13.8792 62 0 48.1208 0 31Z" fill="white"/>
<path d="M31 0C13.8792 0 0 13.8792 0 31C0 48.1208 13.8792 62 31 62C48.1208 62 62 48.1208 62 31C62 13.8792 48.1208 0 31 0ZM25.6643 14.921H27.7153V22.7505H19.6058V20.7713L25.6643 14.921ZM30.4664 14.921H42.3942V47.079H19.6058V25.407H30.4664V14.921Z" fill="#FFC811"/>
</svg>
