<svg width="67" height="75" viewBox="0 0 67 75" fill="none" xmlns="http://www.w3.org/2000/svg">
<path fill-rule="evenodd" clip-rule="evenodd" d="M47.6261 0.666327C44.5487 1.0803 41.4952 2.55494 39.1229 4.7727C38.713 5.15594 35.2608 8.94183 31.4513 13.1857C24.428 21.0098 23.9493 21.5828 23.0809 23.2022C20.7827 27.4883 20.1235 32.5227 21.2283 37.351C22.2076 41.6306 24.6853 45.487 28.0863 48.0253C28.8451 48.5916 29.3954 48.7706 30.2149 48.7179C31.3762 48.6432 32.2384 48.0097 32.7528 46.8534C33.1523 45.9552 33.2117 45.2445 32.9631 44.3353C32.7243 43.4617 32.4055 43.0299 31.3418 42.1389C29.689 40.7547 28.8102 39.6256 28.0357 37.8912C27.4381 36.553 27.1266 35.4337 26.9942 34.1492C26.701 31.3059 27.2771 28.6455 28.7071 26.2387C28.9881 25.7657 30.9621 23.5139 36.1354 17.7649C43.7646 9.28643 43.6791 9.37228 45.3755 8.49749C46.3255 8.00769 47.1292 7.74406 48.2326 7.5604C49.2927 7.38401 50.0636 7.38557 51.1591 7.56629C53.4077 7.9373 55.3651 9.03449 56.9696 10.8232C57.9008 11.8613 58.4886 12.7828 59.041 14.0703C60.3766 17.1836 60.3403 20.979 58.9456 24.0303C58.2384 25.5776 57.9797 25.9115 54.3064 30.0183C51.0613 33.6464 50.7403 34.033 50.5157 34.5834C50.2029 35.35 50.1307 35.9578 50.2612 36.7266C50.3768 37.4071 50.7978 38.2181 51.2617 38.6539C51.9269 39.2789 52.9945 39.612 53.8019 39.4468C54.7875 39.245 54.8801 39.1593 58.6057 35.0042C62.5553 30.5992 62.661 30.4713 63.4508 29.1415C68.5174 20.6103 66.4823 9.31799 58.8514 3.62241C55.5902 1.18815 51.5857 0.133649 47.6261 0.666327ZM35.3108 26.04C34.4237 26.3627 33.8384 26.949 33.4172 27.9367C33.1908 28.4675 33.1607 28.632 33.1642 29.3212C33.1712 30.6945 33.6108 31.5303 34.7903 32.4126C36.93 34.0132 38.5383 36.6699 39.1021 39.5349C39.3126 40.6047 39.3498 42.8795 39.1743 43.9517C38.9349 45.4144 38.3367 47.0376 37.5297 48.4144C36.9948 49.3269 23.2345 64.6162 22.3943 65.2316C20.7365 66.4458 19.0232 67.0785 17.0653 67.1995C13.0778 67.4458 9.20371 64.9579 7.37217 60.9745C5.63744 57.2018 5.86212 52.9215 7.98559 49.286C8.28306 48.7767 9.31328 47.5607 11.9589 44.5958C15.1785 40.9877 15.5527 40.5375 15.7536 40.0289C16.5995 37.8884 15.4529 35.5874 13.3511 35.2073C12.7868 35.1052 11.9591 35.2696 11.4609 35.5826C11.0794 35.8224 4.54097 43.016 3.77046 44.0437C3.30189 44.6688 3.02521 45.0964 2.37138 46.2061C1.9631 46.8991 1.15681 48.8741 0.831265 49.9787C-2.1635 60.1401 3.20591 70.9424 12.562 73.5791C17.6129 75.0026 23.138 73.5982 27.1147 69.8804C27.5247 69.4972 30.9769 65.7113 34.7863 61.4675C41.8077 53.6454 42.2837 53.0757 43.1576 51.4509C44.0706 49.7534 44.8541 47.5275 45.198 45.654C46.1871 40.2669 44.9882 34.7448 41.8899 30.4171C40.7811 28.8684 38.5887 26.7616 37.508 26.2065C36.9616 25.9258 35.855 25.8418 35.3108 26.04Z" fill="white"/>
</svg>
