<svg width="160" height="97" viewBox="0 0 160 97" fill="none" xmlns="http://www.w3.org/2000/svg">
<path d="M9 7L9 28" stroke="#01AA4F" stroke-width="4"/>
<path d="M3.79999 40.34L3.79999 83" stroke="#01AA4F" stroke-width="4"/>
<path d="M2.60001 6.67004L2.60001 10.12" stroke="#01AA4F" stroke-width="4"/>
<path d="M16.9043 83H7.61719L7.67578 76.1445H16.9043C19.209 76.1445 21.1523 75.627 22.7344 74.5918C24.3164 73.5371 25.5078 72.0039 26.3086 69.9922C27.1289 67.9805 27.5391 65.5488 27.5391 62.6973V60.6172C27.5391 58.4297 27.3047 56.5059 26.8359 54.8457C26.3867 53.1855 25.7129 51.7891 24.8145 50.6562C23.916 49.5234 22.8125 48.6738 21.5039 48.1074C20.1953 47.5215 18.6914 47.2285 16.9922 47.2285H7.44141V40.3438H16.9922C19.8438 40.3438 22.4512 40.832 24.8145 41.8086C27.1973 42.7656 29.2578 44.1426 30.9961 45.9395C32.7344 47.7363 34.0723 49.8848 35.0098 52.3848C35.9668 54.8652 36.4453 57.6289 36.4453 60.6758V62.6973C36.4453 65.7246 35.9668 68.4883 35.0098 70.9883C34.0723 73.4883 32.7344 75.6367 30.9961 77.4336C29.2773 79.2109 27.2168 80.5879 24.8145 81.5645C22.4316 82.5215 19.7949 83 16.9043 83ZM12.5977 40.3438V83H3.80859V40.3438H12.5977ZM56.8945 83.5859C54.4336 83.5859 52.2266 83.1953 50.2734 82.4141C48.3203 81.6133 46.6602 80.5098 45.293 79.1035C43.9453 77.6973 42.9102 76.0664 42.1875 74.2109C41.4648 72.3359 41.1035 70.3438 41.1035 68.2344V67.0625C41.1035 64.6602 41.4453 62.4629 42.1289 60.4707C42.8125 58.4785 43.7891 56.75 45.0586 55.2852C46.3477 53.8203 47.9102 52.6973 49.7461 51.916C51.582 51.1152 53.6523 50.7148 55.957 50.7148C58.2031 50.7148 60.1953 51.0859 61.9336 51.8281C63.6719 52.5703 65.127 53.625 66.2988 54.9922C67.4902 56.3594 68.3887 58 68.9941 59.9141C69.5996 61.8086 69.9023 63.918 69.9023 66.2422V69.7578H44.707V64.1328H61.6113V63.4883C61.6113 62.3164 61.3965 61.2715 60.9668 60.3535C60.5566 59.416 59.9316 58.6738 59.0918 58.127C58.252 57.5801 57.1777 57.3066 55.8691 57.3066C54.7559 57.3066 53.7988 57.5508 52.998 58.0391C52.1973 58.5273 51.543 59.2109 51.0352 60.0898C50.5469 60.9688 50.1758 62.0039 49.9219 63.1953C49.6875 64.3672 49.5703 65.6562 49.5703 67.0625V68.2344C49.5703 69.5039 49.7461 70.6758 50.0977 71.75C50.4688 72.8242 50.9863 73.752 51.6504 74.5332C52.334 75.3145 53.1543 75.9199 54.1113 76.3496C55.0879 76.7793 56.1914 76.9941 57.4219 76.9941C58.9453 76.9941 60.3613 76.7012 61.6699 76.1152C62.998 75.5098 64.1406 74.6016 65.0977 73.3906L69.1992 77.8438C68.5352 78.8008 67.627 79.7188 66.4746 80.5977C65.3418 81.4766 63.9746 82.1992 62.373 82.7656C60.7715 83.3125 58.9453 83.5859 56.8945 83.5859ZM83.1445 57.3945V95.1875H74.707V51.3008H82.5293L83.1445 57.3945ZM103.213 66.7988V67.4141C103.213 69.7188 102.939 71.8574 102.393 73.8301C101.865 75.8027 101.084 77.5215 100.049 78.9863C99.0137 80.4316 97.7246 81.5645 96.1816 82.3848C94.6582 83.1855 92.9004 83.5859 90.9082 83.5859C88.9746 83.5859 87.2949 83.1953 85.8691 82.4141C84.4434 81.6328 83.2422 80.5391 82.2656 79.1328C81.3086 77.707 80.5371 76.0566 79.9512 74.1816C79.3652 72.3066 78.916 70.2949 78.6035 68.1465V66.5352C78.916 64.2305 79.3652 62.1211 79.9512 60.207C80.5371 58.2734 81.3086 56.6035 82.2656 55.1973C83.2422 53.7715 84.4336 52.668 85.8398 51.8867C87.2656 51.1055 88.9355 50.7148 90.8496 50.7148C92.8613 50.7148 94.6289 51.0957 96.1523 51.8574C97.6953 52.6191 98.9844 53.7129 100.02 55.1387C101.074 56.5645 101.865 58.2637 102.393 60.2363C102.939 62.209 103.213 64.3965 103.213 66.7988ZM94.7461 67.4141V66.7988C94.7461 65.4512 94.6289 64.2109 94.3945 63.0781C94.1797 61.9258 93.8281 60.9199 93.3398 60.0605C92.8711 59.2012 92.2461 58.5371 91.4648 58.0684C90.7031 57.5801 89.7754 57.3359 88.6816 57.3359C87.5293 57.3359 86.543 57.5215 85.7227 57.8926C84.9219 58.2637 84.2676 58.8008 83.7598 59.5039C83.252 60.207 82.8711 61.0469 82.6172 62.0234C82.3633 63 82.207 64.1035 82.1484 65.334V69.4062C82.2461 70.8516 82.5195 72.1504 82.9688 73.3027C83.418 74.4355 84.1113 75.334 85.0488 75.998C85.9863 76.6621 87.2168 76.9941 88.7402 76.9941C89.8535 76.9941 90.791 76.75 91.5527 76.2617C92.3145 75.7539 92.9297 75.0605 93.3984 74.1816C93.8867 73.3027 94.2285 72.2871 94.4238 71.1348C94.6387 69.9824 94.7461 68.7422 94.7461 67.4141ZM107.109 67.4727V66.8574C107.109 64.5332 107.441 62.3945 108.105 60.4414C108.77 58.4688 109.736 56.7598 111.006 55.3145C112.275 53.8691 113.838 52.7461 115.693 51.9453C117.549 51.125 119.678 50.7148 122.08 50.7148C124.482 50.7148 126.621 51.125 128.496 51.9453C130.371 52.7461 131.943 53.8691 133.213 55.3145C134.502 56.7598 135.479 58.4688 136.143 60.4414C136.807 62.3945 137.139 64.5332 137.139 66.8574V67.4727C137.139 69.7773 136.807 71.916 136.143 73.8887C135.479 75.8418 134.502 77.5508 133.213 79.0156C131.943 80.4609 130.381 81.584 128.525 82.3848C126.67 83.1855 124.541 83.5859 122.139 83.5859C119.736 83.5859 117.598 83.1855 115.723 82.3848C113.867 81.584 112.295 80.4609 111.006 79.0156C109.736 77.5508 108.77 75.8418 108.105 73.8887C107.441 71.916 107.109 69.7773 107.109 67.4727ZM115.547 66.8574V67.4727C115.547 68.8008 115.664 70.041 115.898 71.1934C116.133 72.3457 116.504 73.3613 117.012 74.2402C117.539 75.0996 118.223 75.7734 119.062 76.2617C119.902 76.75 120.928 76.9941 122.139 76.9941C123.311 76.9941 124.316 76.75 125.156 76.2617C125.996 75.7734 126.67 75.0996 127.178 74.2402C127.686 73.3613 128.057 72.3457 128.291 71.1934C128.545 70.041 128.672 68.8008 128.672 67.4727V66.8574C128.672 65.5684 128.545 64.3574 128.291 63.2246C128.057 62.0723 127.676 61.0566 127.148 60.1777C126.641 59.2793 125.967 58.5762 125.127 58.0684C124.287 57.5605 123.271 57.3066 122.08 57.3066C120.889 57.3066 119.873 57.5605 119.033 58.0684C118.213 58.5762 117.539 59.2793 117.012 60.1777C116.504 61.0566 116.133 62.0723 115.898 63.2246C115.664 64.3574 115.547 65.5684 115.547 66.8574ZM157.852 51.3008V57.2773H139.395V51.3008H157.852ZM143.965 43.4785H152.402V73.4492C152.402 74.3672 152.52 75.0703 152.754 75.5586C153.008 76.0469 153.379 76.3887 153.867 76.584C154.355 76.7598 154.971 76.8477 155.713 76.8477C156.24 76.8477 156.709 76.8281 157.119 76.7891C157.549 76.7305 157.91 76.6719 158.203 76.6133L158.232 82.8242C157.51 83.0586 156.729 83.2441 155.889 83.3809C155.049 83.5176 154.121 83.5859 153.105 83.5859C151.25 83.5859 149.629 83.2832 148.242 82.6777C146.875 82.0527 145.82 81.0566 145.078 79.6895C144.336 78.3223 143.965 76.5254 143.965 74.2988V43.4785Z" fill="white"/>
<path d="M13.4404 6.67188V28H9.06055V6.67188H13.4404ZM20.0029 6.67188V10.1143H2.60059V6.67188H20.0029ZM26.3604 5.5V28H22.1416V5.5H26.3604ZM25.7598 19.5186H24.6025C24.6123 18.415 24.7588 17.3994 25.042 16.4717C25.3252 15.5342 25.7305 14.7236 26.2578 14.04C26.7852 13.3467 27.415 12.8096 28.1475 12.4287C28.8896 12.0479 29.71 11.8574 30.6084 11.8574C31.3896 11.8574 32.0977 11.9697 32.7324 12.1943C33.377 12.4092 33.9287 12.7607 34.3877 13.249C34.8564 13.7275 35.2178 14.3574 35.4717 15.1387C35.7256 15.9199 35.8525 16.8672 35.8525 17.9805V28H31.6045V17.9512C31.6045 17.248 31.502 16.6963 31.2969 16.2959C31.1016 15.8857 30.8135 15.5977 30.4326 15.4316C30.0615 15.2559 29.6025 15.168 29.0557 15.168C28.4502 15.168 27.9326 15.2803 27.5029 15.5049C27.083 15.7295 26.7461 16.042 26.4922 16.4424C26.2383 16.833 26.0527 17.292 25.9355 17.8193C25.8184 18.3467 25.7598 18.9131 25.7598 19.5186ZM46.3555 28.293C45.125 28.293 44.0215 28.0977 43.0449 27.707C42.0684 27.3066 41.2383 26.7549 40.5547 26.0518C39.8809 25.3486 39.3633 24.5332 39.002 23.6055C38.6406 22.668 38.46 21.6719 38.46 20.6172V20.0312C38.46 18.8301 38.6309 17.7314 38.9727 16.7354C39.3145 15.7393 39.8027 14.875 40.4375 14.1426C41.082 13.4102 41.8633 12.8486 42.7812 12.458C43.6992 12.0576 44.7344 11.8574 45.8867 11.8574C47.0098 11.8574 48.0059 12.043 48.875 12.4141C49.7441 12.7852 50.4717 13.3125 51.0576 13.9961C51.6533 14.6797 52.1025 15.5 52.4053 16.457C52.708 17.4043 52.8594 18.459 52.8594 19.6211V21.3789H40.2617V18.5664H48.7139V18.2441C48.7139 17.6582 48.6064 17.1357 48.3916 16.6768C48.1865 16.208 47.874 15.8369 47.4541 15.5635C47.0342 15.29 46.4971 15.1533 45.8428 15.1533C45.2861 15.1533 44.8076 15.2754 44.4072 15.5195C44.0068 15.7637 43.6797 16.1055 43.4258 16.5449C43.1816 16.9844 42.9961 17.502 42.8691 18.0977C42.752 18.6836 42.6934 19.3281 42.6934 20.0312V20.6172C42.6934 21.252 42.7812 21.8379 42.957 22.375C43.1426 22.9121 43.4014 23.376 43.7334 23.7666C44.0752 24.1572 44.4854 24.46 44.9639 24.6748C45.4521 24.8896 46.0039 24.9971 46.6191 24.9971C47.3809 24.9971 48.0889 24.8506 48.7432 24.5576C49.4072 24.2549 49.9785 23.8008 50.457 23.1953L52.5078 25.4219C52.1758 25.9004 51.7217 26.3594 51.1455 26.7988C50.5791 27.2383 49.8955 27.5996 49.0947 27.8828C48.2939 28.1562 47.3809 28.293 46.3555 28.293Z" fill="white"/>
</svg>
