<svg width="360" height="72" viewBox="0 0 360 72" fill="none" xmlns="http://www.w3.org/2000/svg">
<path d="M0 30C0 13.4315 13.4315 0 30 0H330C346.569 0 360 13.4315 360 30V42C360 58.5685 346.569 72 330 72H30C13.4315 72 0 58.5685 0 42V30Z" fill="#0086CF"/>
<path d="M91.8 21.5625H96.7609L104.066 42.4414L111.37 21.5625H116.331L106.058 50H102.073L91.8 21.5625ZM89.1242 21.5625H94.0656L94.9641 41.9141V50H89.1242V21.5625ZM114.066 21.5625H119.027V50H113.167V41.9141L114.066 21.5625ZM129.681 47.6172L135.287 28.8672H141.322L132.826 53.1836C132.643 53.7174 132.396 54.2904 132.084 54.9023C131.784 55.5143 131.374 56.0938 130.853 56.6406C130.345 57.2005 129.701 57.6562 128.92 58.0078C128.151 58.3594 127.207 58.5352 126.088 58.5352C125.554 58.5352 125.117 58.5026 124.779 58.4375C124.44 58.3724 124.037 58.2812 123.568 58.1641V54.043C123.711 54.043 123.861 54.043 124.017 54.043C124.173 54.056 124.323 54.0625 124.466 54.0625C125.209 54.0625 125.814 53.9779 126.283 53.8086C126.752 53.6393 127.129 53.3789 127.416 53.0273C127.702 52.6888 127.93 52.2461 128.099 51.6992L129.681 47.6172ZM127.338 28.8672L131.927 44.1797L132.728 50.1367L128.9 50.5469L121.302 28.8672H127.338ZM171.362 45.4297V50H157.045V45.4297H171.362ZM158.94 21.5625V50H153.08V21.5625H158.94ZM179.907 28.8672V50H174.263V28.8672H179.907ZM173.911 23.3594C173.911 22.5391 174.197 21.862 174.77 21.3281C175.343 20.7943 176.111 20.5273 177.075 20.5273C178.026 20.5273 178.787 20.7943 179.36 21.3281C179.946 21.862 180.239 22.5391 180.239 23.3594C180.239 24.1797 179.946 24.8568 179.36 25.3906C178.787 25.9245 178.026 26.1914 177.075 26.1914C176.111 26.1914 175.343 25.9245 174.77 25.3906C174.197 24.8568 173.911 24.1797 173.911 23.3594ZM184.155 20H189.78V45.1562L189.214 50H184.155V20ZM203.159 39.2188V39.6289C203.159 41.2044 202.99 42.6497 202.652 43.9648C202.326 45.2799 201.818 46.4193 201.128 47.3828C200.438 48.3333 199.579 49.0755 198.55 49.6094C197.534 50.1302 196.336 50.3906 194.956 50.3906C193.667 50.3906 192.547 50.1302 191.597 49.6094C190.659 49.0885 189.872 48.3529 189.234 47.4023C188.596 46.4518 188.081 45.3385 187.691 44.0625C187.3 42.7865 187.007 41.3932 186.812 39.8828V38.9844C187.007 37.474 187.3 36.0807 187.691 34.8047C188.081 33.5286 188.596 32.4154 189.234 31.4648C189.872 30.5143 190.659 29.7786 191.597 29.2578C192.534 28.737 193.641 28.4766 194.917 28.4766C196.31 28.4766 197.521 28.7435 198.55 29.2773C199.592 29.7982 200.451 30.5404 201.128 31.5039C201.818 32.4544 202.326 33.5872 202.652 34.9023C202.99 36.2044 203.159 37.6432 203.159 39.2188ZM197.534 39.6289V39.2188C197.534 38.3594 197.469 37.5521 197.339 36.7969C197.222 36.0286 197.014 35.3581 196.714 34.7852C196.415 34.1992 196.004 33.737 195.484 33.3984C194.976 33.0599 194.318 32.8906 193.511 32.8906C192.743 32.8906 192.092 33.0208 191.558 33.2812C191.024 33.5417 190.581 33.9062 190.23 34.375C189.891 34.8438 189.637 35.4036 189.468 36.0547C189.299 36.6927 189.195 37.3958 189.155 38.1641V40.7227C189.195 41.7513 189.364 42.6628 189.663 43.457C189.976 44.2383 190.445 44.8568 191.07 45.3125C191.708 45.7552 192.534 45.9766 193.55 45.9766C194.344 45.9766 195.002 45.8203 195.523 45.5078C196.043 45.1953 196.447 44.7526 196.734 44.1797C197.033 43.6068 197.241 42.9362 197.359 42.168C197.476 41.3867 197.534 40.5404 197.534 39.6289ZM211.88 33.4766V50H206.255V28.8672H211.548L211.88 33.4766ZM218.248 28.7305L218.15 33.9453C217.877 33.9062 217.545 33.8737 217.154 33.8477C216.776 33.8086 216.431 33.7891 216.119 33.7891C215.324 33.7891 214.634 33.8932 214.048 34.1016C213.476 34.2969 212.994 34.5898 212.603 34.9805C212.226 35.3711 211.939 35.8464 211.744 36.4062C211.561 36.9661 211.457 37.6042 211.431 38.3203L210.298 37.9688C210.298 36.6016 210.435 35.3451 210.709 34.1992C210.982 33.0404 211.379 32.0312 211.9 31.1719C212.434 30.3125 213.085 29.6484 213.853 29.1797C214.621 28.7109 215.5 28.4766 216.49 28.4766C216.802 28.4766 217.121 28.5026 217.447 28.5547C217.772 28.5938 218.039 28.6523 218.248 28.7305ZM231.246 45.2344V35.8203C231.246 35.1432 231.135 34.5638 230.914 34.082C230.693 33.5872 230.348 33.2031 229.879 32.9297C229.423 32.6562 228.831 32.5195 228.102 32.5195C227.477 32.5195 226.936 32.6302 226.48 32.8516C226.025 33.0599 225.673 33.3659 225.426 33.7695C225.178 34.1602 225.055 34.6224 225.055 35.1562H219.43C219.43 34.2578 219.638 33.4049 220.055 32.5977C220.471 31.7904 221.077 31.0807 221.871 30.4688C222.665 29.8438 223.609 29.3555 224.703 29.0039C225.81 28.6523 227.047 28.4766 228.414 28.4766C230.055 28.4766 231.513 28.75 232.789 29.2969C234.065 29.8438 235.068 30.6641 235.797 31.7578C236.539 32.8516 236.91 34.2188 236.91 35.8594V44.9023C236.91 46.0612 236.982 47.0117 237.125 47.7539C237.268 48.4831 237.477 49.1211 237.75 49.668V50H232.066C231.793 49.4271 231.585 48.7109 231.441 47.8516C231.311 46.9792 231.246 46.1068 231.246 45.2344ZM231.988 37.1289L232.027 40.3125H228.883C228.141 40.3125 227.496 40.3971 226.949 40.5664C226.402 40.7357 225.953 40.9766 225.602 41.2891C225.25 41.5885 224.99 41.9401 224.82 42.3438C224.664 42.7474 224.586 43.1901 224.586 43.6719C224.586 44.1536 224.697 44.5898 224.918 44.9805C225.139 45.3581 225.458 45.6576 225.875 45.8789C226.292 46.0872 226.78 46.1914 227.34 46.1914C228.186 46.1914 228.922 46.0221 229.547 45.6836C230.172 45.3451 230.654 44.9284 230.992 44.4336C231.344 43.9388 231.526 43.4701 231.539 43.0273L233.023 45.4102C232.815 45.944 232.529 46.4974 232.164 47.0703C231.812 47.6432 231.363 48.1836 230.816 48.6914C230.27 49.1862 229.612 49.5964 228.844 49.9219C228.076 50.2344 227.164 50.3906 226.109 50.3906C224.768 50.3906 223.551 50.1237 222.457 49.5898C221.376 49.043 220.517 48.2943 219.879 47.3438C219.254 46.3802 218.941 45.2865 218.941 44.0625C218.941 42.9557 219.15 41.9727 219.566 41.1133C219.983 40.2539 220.595 39.5312 221.402 38.9453C222.223 38.3464 223.245 37.8971 224.469 37.5977C225.693 37.2852 227.112 37.1289 228.727 37.1289H231.988ZM246.471 33.4766V50H240.846V28.8672H246.139L246.471 33.4766ZM252.838 28.7305L252.741 33.9453C252.467 33.9062 252.135 33.8737 251.745 33.8477C251.367 33.8086 251.022 33.7891 250.709 33.7891C249.915 33.7891 249.225 33.8932 248.639 34.1016C248.066 34.2969 247.584 34.5898 247.194 34.9805C246.816 35.3711 246.53 35.8464 246.334 36.4062C246.152 36.9661 246.048 37.6042 246.022 38.3203L244.889 37.9688C244.889 36.6016 245.026 35.3451 245.299 34.1992C245.573 33.0404 245.97 32.0312 246.491 31.1719C247.024 30.3125 247.676 29.6484 248.444 29.1797C249.212 28.7109 250.091 28.4766 251.08 28.4766C251.393 28.4766 251.712 28.5026 252.038 28.5547C252.363 28.5938 252.63 28.6523 252.838 28.7305ZM261.716 47.6172L267.321 28.8672H273.356L264.86 53.1836C264.678 53.7174 264.43 54.2904 264.118 54.9023C263.818 55.5143 263.408 56.0938 262.887 56.6406C262.38 57.2005 261.735 57.6562 260.954 58.0078C260.186 58.3594 259.242 58.5352 258.122 58.5352C257.588 58.5352 257.152 58.5026 256.813 58.4375C256.475 58.3724 256.071 58.2812 255.602 58.1641V54.043C255.746 54.043 255.895 54.043 256.052 54.043C256.208 54.056 256.358 54.0625 256.501 54.0625C257.243 54.0625 257.848 53.9779 258.317 53.8086C258.786 53.6393 259.164 53.3789 259.45 53.0273C259.736 52.6888 259.964 52.2461 260.134 51.6992L261.716 47.6172ZM259.372 28.8672L263.962 44.1797L264.762 50.1367L260.934 50.5469L253.337 28.8672H259.372Z" fill="white"/>
</svg>
