<svg width="50" height="50" viewBox="0 0 50 50" fill="none" xmlns="http://www.w3.org/2000/svg">
<path d="M2.5 12.5H47.5V39.1667H2.5V12.5Z" fill="white"/>
<path d="M25 20.3125H28.125V29.6875H25V20.3125ZM9.375 23.4375H12.5V20.3125H9.375V23.4375ZM50 6.25V43.75C50 45.4076 49.3415 46.9973 48.1694 48.1694C46.9973 49.3415 45.4076 50 43.75 50H6.25C4.5924 50 3.00268 49.3415 1.83058 48.1694C0.65848 46.9973 0 45.4076 0 43.75V6.25C0 4.5924 0.65848 3.00268 1.83058 1.83058C3.00268 0.65848 4.5924 0 6.25 0H43.75C45.4076 0 46.9973 0.65848 48.1694 1.83058C49.3415 3.00268 50 4.5924 50 6.25ZM17.1875 20.3125C17.1875 19.0693 16.6936 17.877 15.8146 16.9979C14.9355 16.1189 13.7432 15.625 12.5 15.625H4.6875V34.375H9.375V28.125H12.5C13.7432 28.125 14.9355 27.6311 15.8146 26.7521C16.6936 25.873 17.1875 24.6807 17.1875 23.4375V20.3125ZM32.8125 20.3125C32.8125 19.0693 32.3186 17.877 31.4396 16.9979C30.5605 16.1189 29.3682 15.625 28.125 15.625H20.3125V34.375H28.125C29.3682 34.375 30.5605 33.8811 31.4396 33.0021C32.3186 32.123 32.8125 30.9307 32.8125 29.6875V20.3125ZM45.3125 15.625H35.9375V34.375H40.625V28.125H45.3125V23.4375H40.625V20.3125H45.3125V15.625Z" fill="#DF1A35"/>
</svg>
