<svg width="60" height="60" viewBox="0 0 60 60" fill="none" xmlns="http://www.w3.org/2000/svg">
<rect width="60" height="60" rx="12" fill="#0086CF"/>
<path fill-rule="evenodd" clip-rule="evenodd" d="M30.0002 13.2002C30.8913 13.2002 31.746 13.5542 32.3761 14.1843C33.0062 14.8144 33.3602 15.6691 33.3602 16.5602V26.6402H43.4402C44.3313 26.6402 45.186 26.9942 45.8161 27.6243C46.4462 28.2544 46.8002 29.1091 46.8002 30.0002C46.8002 30.8913 46.4462 31.746 45.8161 32.3761C45.186 33.0062 44.3313 33.3602 43.4402 33.3602H33.3602V43.4402C33.3602 44.3313 33.0062 45.186 32.3761 45.8161C31.746 46.4462 30.8913 46.8002 30.0002 46.8002C29.1091 46.8002 28.2544 46.4462 27.6243 45.8161C26.9942 45.186 26.6402 44.3313 26.6402 43.4402V33.3602H16.5602C15.6691 33.3602 14.8144 33.0062 14.1843 32.3761C13.5542 31.746 13.2002 30.8913 13.2002 30.0002C13.2002 29.1091 13.5542 28.2544 14.1843 27.6243C14.8144 26.9942 15.6691 26.6402 16.5602 26.6402H26.6402V16.5602C26.6402 15.6691 26.9942 14.8144 27.6243 14.1843C28.2544 13.5542 29.1091 13.2002 30.0002 13.2002V13.2002Z" fill="white"/>
</svg>
