<svg width="319" height="207" viewBox="0 0 319 207" fill="none" xmlns="http://www.w3.org/2000/svg">
<path d="M183.561 59.3799C183.561 55.6104 184.571 52.7051 186.593 50.6641C188.351 48.8867 190.587 47.998 193.302 47.998C196.935 47.998 199.591 49.1895 201.271 51.5723C202.198 52.9102 202.696 54.2529 202.765 55.6006H198.253C197.96 54.5654 197.584 53.7842 197.125 53.2568C196.305 52.3193 195.089 51.8506 193.478 51.8506C191.837 51.8506 190.543 52.5146 189.596 53.8428C188.648 55.1611 188.175 57.0312 188.175 59.4531C188.175 61.875 188.673 63.6914 189.669 64.9023C190.675 66.1035 191.949 66.7041 193.492 66.7041C195.074 66.7041 196.28 66.1865 197.11 65.1514C197.569 64.5947 197.95 63.7598 198.253 62.6465H202.721C202.33 65 201.329 66.9141 199.718 68.3887C198.116 69.8633 196.061 70.6006 193.551 70.6006C190.445 70.6006 188.004 69.6045 186.227 67.6123C184.449 65.6104 183.561 62.8662 183.561 59.3799ZM213.004 67.0557C214.225 67.0557 215.162 66.6211 215.816 65.752C216.471 64.8828 216.798 63.6475 216.798 62.0459C216.798 60.4443 216.471 59.2139 215.816 58.3545C215.162 57.4854 214.225 57.0508 213.004 57.0508C211.783 57.0508 210.841 57.4854 210.177 58.3545C209.522 59.2139 209.195 60.4443 209.195 62.0459C209.195 63.6475 209.522 64.8828 210.177 65.752C210.841 66.6211 211.783 67.0557 213.004 67.0557ZM221.178 62.0459C221.178 64.3896 220.504 66.3965 219.156 68.0664C217.809 69.7266 215.763 70.5566 213.019 70.5566C210.274 70.5566 208.229 69.7266 206.881 68.0664C205.533 66.3965 204.859 64.3896 204.859 62.0459C204.859 59.7412 205.533 57.7441 206.881 56.0547C208.229 54.3652 210.274 53.5205 213.019 53.5205C215.763 53.5205 217.809 54.3652 219.156 56.0547C220.504 57.7441 221.178 59.7412 221.178 62.0459ZM242.022 53.6816C242.726 53.6816 243.419 53.8184 244.103 54.0918C244.786 54.3652 245.406 54.8438 245.963 55.5273C246.412 56.084 246.715 56.7676 246.871 57.5781C246.969 58.1152 247.018 58.9014 247.018 59.9365L246.988 70H242.711V59.834C242.711 59.2285 242.613 58.7305 242.418 58.3398C242.047 57.5977 241.363 57.2266 240.367 57.2266C239.215 57.2266 238.419 57.7051 237.979 58.6621C237.755 59.1699 237.643 59.7803 237.643 60.4932V70H233.438V60.4932C233.438 59.5459 233.341 58.8574 233.146 58.4277C232.794 57.6562 232.105 57.2705 231.08 57.2705C229.889 57.2705 229.088 57.6562 228.678 58.4277C228.453 58.8672 228.341 59.5215 228.341 60.3906V70H224.107V54.0625H228.165V56.3916C228.683 55.5615 229.171 54.9707 229.63 54.6191C230.44 53.9941 231.49 53.6816 232.779 53.6816C234 53.6816 234.986 53.9502 235.738 54.4873C236.344 54.9854 236.803 55.625 237.115 56.4062C237.662 55.4688 238.341 54.7803 239.151 54.3408C240.011 53.9014 240.968 53.6816 242.022 53.6816ZM261.871 62.0166C261.871 60.7861 261.588 59.6973 261.021 58.75C260.465 57.8027 259.557 57.3291 258.297 57.3291C256.783 57.3291 255.743 58.0469 255.177 59.4824C254.884 60.2441 254.737 61.2109 254.737 62.3828C254.737 64.2383 255.23 65.542 256.217 66.2939C256.803 66.7334 257.496 66.9531 258.297 66.9531C259.459 66.9531 260.343 66.5039 260.948 65.6055C261.563 64.707 261.871 63.5107 261.871 62.0166ZM259.498 53.6816C261.363 53.6816 262.94 54.3701 264.229 55.7471C265.528 57.124 266.178 59.1455 266.178 61.8115C266.178 64.624 265.543 66.7676 264.273 68.2422C263.014 69.7168 261.388 70.4541 259.396 70.4541C258.126 70.4541 257.071 70.1367 256.231 69.502C255.772 69.1504 255.323 68.6377 254.884 67.9639V76.2842H250.753V54.0332H254.752V56.3916C255.201 55.6982 255.68 55.1514 256.188 54.751C257.115 54.0381 258.219 53.6816 259.498 53.6816ZM273.473 70H269.298V48.4082H273.473V70ZM283.858 57.0508C282.892 57.0508 282.14 57.3535 281.603 57.959C281.075 58.5645 280.743 59.3848 280.606 60.4199H287.096C287.027 59.3164 286.69 58.4814 286.085 57.915C285.489 57.3389 284.747 57.0508 283.858 57.0508ZM283.858 53.6084C285.187 53.6084 286.383 53.8574 287.447 54.3555C288.512 54.8535 289.391 55.6396 290.084 56.7139C290.709 57.6611 291.114 58.7598 291.3 60.0098C291.407 60.7422 291.451 61.7969 291.432 63.1738H280.504C280.562 64.7754 281.065 65.8984 282.013 66.543C282.589 66.9434 283.282 67.1436 284.093 67.1436C284.952 67.1436 285.65 66.8994 286.188 66.4111C286.48 66.1475 286.739 65.7812 286.964 65.3125H291.227C291.119 66.2598 290.626 67.2217 289.747 68.1982C288.38 69.751 286.466 70.5273 284.005 70.5273C281.974 70.5273 280.182 69.873 278.629 68.5645C277.076 67.2559 276.3 65.127 276.3 62.1777C276.3 59.4141 276.998 57.2949 278.395 55.8203C279.801 54.3457 281.622 53.6084 283.858 53.6084ZM292.618 57.1533V54.1797H294.845V49.7266H298.976V54.1797H301.568V57.1533H298.976V65.5908C298.976 66.2451 299.059 66.6553 299.225 66.8213C299.391 66.9775 299.898 67.0557 300.748 67.0557C300.875 67.0557 301.007 67.0557 301.144 67.0557C301.29 67.0459 301.432 67.0361 301.568 67.0264V70.1465L299.591 70.2197C297.618 70.2881 296.271 69.9463 295.548 69.1943C295.079 68.7158 294.845 67.9785 294.845 66.9824V57.1533H292.618ZM310.548 57.0508C309.581 57.0508 308.829 57.3535 308.292 57.959C307.765 58.5645 307.433 59.3848 307.296 60.4199H313.785C313.717 59.3164 313.38 58.4814 312.774 57.915C312.179 57.3389 311.437 57.0508 310.548 57.0508ZM310.548 53.6084C311.876 53.6084 313.072 53.8574 314.137 54.3555C315.201 54.8535 316.08 55.6396 316.773 56.7139C317.398 57.6611 317.804 58.7598 317.989 60.0098C318.097 60.7422 318.141 61.7969 318.121 63.1738H307.193C307.252 64.7754 307.755 65.8984 308.702 66.543C309.278 66.9434 309.972 67.1436 310.782 67.1436C311.642 67.1436 312.34 66.8994 312.877 66.4111C313.17 66.1475 313.429 65.7812 313.653 65.3125H317.916C317.809 66.2598 317.315 67.2217 316.437 68.1982C315.069 69.751 313.155 70.5273 310.694 70.5273C308.663 70.5273 306.871 69.873 305.318 68.5645C303.766 67.2559 302.989 65.127 302.989 62.1777C302.989 59.4141 303.688 57.2949 305.084 55.8203C306.49 54.3457 308.312 53.6084 310.548 53.6084Z" fill="white"/>
<circle cx="103.972" cy="103.972" r="64.9716" stroke="#FEAC3C" stroke-width="8"/>
<path d="M203 103.5C203 125.823 195.494 147.497 181.687 165.039C167.881 182.58 148.577 194.969 126.88 200.214C105.182 205.459 82.3503 203.256 62.056 193.958C41.7618 184.66 25.1837 168.808 14.987 148.95C4.79028 129.092 1.56741 106.382 5.83651 84.4713C10.1056 62.5605 21.6186 42.7217 38.5247 28.1445C55.4307 13.5672 76.7475 5.09846 99.048 4.09965C121.348 3.10084 143.337 9.63003 161.479 22.6375" stroke="#FEAC3C" stroke-width="8" stroke-linecap="round"/>
<path d="M187.341 103.67C187.341 122.457 181.019 140.696 169.392 155.453C157.766 170.209 141.511 180.623 123.247 185.019C104.982 189.414 85.7691 187.535 68.7022 179.683C51.6352 171.832 37.7071 158.466 29.1603 141.736C20.6136 125.006 17.9456 105.887 21.5859 87.4572C25.2262 69.027 34.963 52.3581 49.2285 40.1345C63.4941 27.9108 81.4582 20.8436 100.229 20.0708C118.999 19.298 137.483 24.8646 152.705 35.8743" stroke="#FEAC3C" stroke-width="8" stroke-linecap="round"/>
<path d="M94.2588 86.3691V97.4775H106.632C108.842 97.4775 110.631 97.0674 111.998 96.2471C113.388 95.404 114.083 93.9229 114.083 91.8037C114.083 89.4567 113.172 87.9072 111.349 87.1553C109.776 86.6312 107.771 86.3691 105.333 86.3691H94.2588ZM94.2588 105.817V119.25H106.632C108.842 119.25 110.562 118.954 111.793 118.361C114.026 117.268 115.143 115.171 115.143 112.072C115.143 109.452 114.06 107.652 111.896 106.672C110.688 106.125 108.99 105.84 106.803 105.817H94.2588ZM108.683 77.6191C114.858 77.7103 119.233 79.499 121.808 82.9854C123.357 85.1273 124.132 87.6908 124.132 90.6758C124.132 93.752 123.357 96.2243 121.808 98.0928C120.942 99.141 119.666 100.098 117.979 100.964C120.554 101.898 122.491 103.379 123.79 105.407C125.112 107.435 125.772 109.896 125.772 112.79C125.772 115.775 125.021 118.452 123.517 120.822C122.56 122.395 121.363 123.716 119.928 124.787C118.31 126.018 116.396 126.861 114.186 127.316C111.998 127.772 109.617 128 107.042 128H84.21V77.6191H108.683Z" fill="white"/>
</svg>
