<svg width="360" height="72" viewBox="0 0 360 72" fill="none" xmlns="http://www.w3.org/2000/svg">
<path d="M0 30C0 13.4315 13.4315 0 30 0H330C346.569 0 360 13.4315 360 30V42C360 58.5685 346.569 72 330 72H30C13.4315 72 0 58.5685 0 42V30Z" fill="#DF1A35"/>
<path d="M49.207 21.5625H59.8125C61.987 21.5625 63.8555 21.888 65.418 22.5391C66.9935 23.1901 68.2044 24.1536 69.0508 25.4297C69.8971 26.7057 70.3203 28.2747 70.3203 30.1367C70.3203 31.6602 70.0599 32.9688 69.5391 34.0625C69.0312 35.1432 68.3086 36.0482 67.3711 36.7773C66.4466 37.4935 65.3594 38.0664 64.1094 38.4961L62.2539 39.4727H53.0352L52.9961 34.9023H59.8516C60.8802 34.9023 61.7331 34.7201 62.4102 34.3555C63.0872 33.9909 63.5951 33.4831 63.9336 32.832C64.2852 32.181 64.4609 31.4258 64.4609 30.5664C64.4609 29.6549 64.2917 28.8672 63.9531 28.2031C63.6146 27.5391 63.1003 27.0312 62.4102 26.6797C61.7201 26.3281 60.8542 26.1523 59.8125 26.1523H55.0664V50H49.207V21.5625ZM65.1055 50L58.6211 37.3242L64.8125 37.2852L71.375 49.7266V50H65.1055ZM83.807 50.3906C82.1664 50.3906 80.6951 50.1302 79.393 49.6094C78.0909 49.0755 76.9841 48.3398 76.0727 47.4023C75.1742 46.4648 74.4841 45.3776 74.0023 44.1406C73.5206 42.8906 73.2797 41.5625 73.2797 40.1562V39.375C73.2797 37.7734 73.5076 36.3086 73.9633 34.9805C74.419 33.6523 75.0701 32.5 75.9164 31.5234C76.7758 30.5469 77.8174 29.7982 79.0414 29.2773C80.2654 28.7435 81.6456 28.4766 83.182 28.4766C84.6794 28.4766 86.0076 28.724 87.1664 29.2188C88.3253 29.7135 89.2953 30.4167 90.0766 31.3281C90.8708 32.2396 91.4698 33.3333 91.8734 34.6094C92.2771 35.8724 92.4789 37.2786 92.4789 38.8281V41.1719H75.682V37.4219H86.9516V36.9922C86.9516 36.2109 86.8083 35.5143 86.5219 34.9023C86.2484 34.2773 85.8318 33.7826 85.2719 33.418C84.712 33.0534 83.9958 32.8711 83.1234 32.8711C82.3812 32.8711 81.7432 33.0339 81.2094 33.3594C80.6755 33.6849 80.2393 34.1406 79.9008 34.7266C79.5753 35.3125 79.3279 36.0026 79.1586 36.7969C79.0023 37.5781 78.9242 38.4375 78.9242 39.375V40.1562C78.9242 41.0026 79.0414 41.7839 79.2758 42.5C79.5232 43.2161 79.8682 43.8346 80.3109 44.3555C80.7667 44.8763 81.3135 45.2799 81.9516 45.5664C82.6026 45.8529 83.3383 45.9961 84.1586 45.9961C85.1742 45.9961 86.1182 45.8008 86.9906 45.4102C87.876 45.0065 88.6378 44.401 89.2758 43.5938L92.0102 46.5625C91.5674 47.2005 90.962 47.8125 90.1937 48.3984C89.4385 48.9844 88.5271 49.4661 87.4594 49.8438C86.3917 50.2083 85.1742 50.3906 83.807 50.3906ZM104.012 45.9961C104.703 45.9961 105.315 45.8659 105.848 45.6055C106.382 45.332 106.799 44.9544 107.098 44.4727C107.411 43.9779 107.574 43.3984 107.587 42.7344H112.88C112.867 44.2188 112.47 45.5404 111.688 46.6992C110.907 47.8451 109.859 48.75 108.544 49.4141C107.229 50.0651 105.757 50.3906 104.13 50.3906C102.489 50.3906 101.057 50.1172 99.8328 49.5703C98.6219 49.0234 97.6128 48.2682 96.8055 47.3047C95.9982 46.3281 95.3927 45.1953 94.9891 43.9062C94.5854 42.6042 94.3836 41.2109 94.3836 39.7266V39.1602C94.3836 37.6628 94.5854 36.2695 94.9891 34.9805C95.3927 33.6784 95.9982 32.5456 96.8055 31.582C97.6128 30.6055 98.6219 29.8438 99.8328 29.2969C101.044 28.75 102.463 28.4766 104.091 28.4766C105.822 28.4766 107.339 28.8086 108.641 29.4727C109.957 30.1367 110.985 31.0872 111.727 32.3242C112.483 33.5482 112.867 35 112.88 36.6797H107.587C107.574 35.9766 107.424 35.3385 107.137 34.7656C106.864 34.1927 106.46 33.737 105.927 33.3984C105.406 33.0469 104.761 32.8711 103.993 32.8711C103.173 32.8711 102.502 33.0469 101.981 33.3984C101.46 33.737 101.057 34.2057 100.77 34.8047C100.484 35.3906 100.282 36.0612 100.165 36.8164C100.061 37.5586 100.009 38.3398 100.009 39.1602V39.7266C100.009 40.5469 100.061 41.3346 100.165 42.0898C100.269 42.8451 100.464 43.5156 100.751 44.1016C101.05 44.6875 101.46 45.1497 101.981 45.4883C102.502 45.8268 103.179 45.9961 104.012 45.9961ZM114.843 39.6484V39.2383C114.843 37.6888 115.064 36.263 115.507 34.9609C115.95 33.6458 116.594 32.5065 117.441 31.543C118.287 30.5794 119.329 29.8307 120.566 29.2969C121.803 28.75 123.222 28.4766 124.823 28.4766C126.425 28.4766 127.851 28.75 129.101 29.2969C130.351 29.8307 131.399 30.5794 132.245 31.543C133.105 32.5065 133.756 33.6458 134.198 34.9609C134.641 36.263 134.863 37.6888 134.863 39.2383V39.6484C134.863 41.1849 134.641 42.6107 134.198 43.9258C133.756 45.2279 133.105 46.3672 132.245 47.3438C131.399 48.3073 130.357 49.056 129.12 49.5898C127.883 50.1237 126.464 50.3906 124.863 50.3906C123.261 50.3906 121.835 50.1237 120.585 49.5898C119.348 49.056 118.3 48.3073 117.441 47.3438C116.594 46.3672 115.95 45.2279 115.507 43.9258C115.064 42.6107 114.843 41.1849 114.843 39.6484ZM120.468 39.2383V39.6484C120.468 40.5339 120.546 41.3607 120.702 42.1289C120.859 42.8971 121.106 43.5742 121.445 44.1602C121.796 44.7331 122.252 45.1823 122.812 45.5078C123.372 45.8333 124.055 45.9961 124.863 45.9961C125.644 45.9961 126.314 45.8333 126.874 45.5078C127.434 45.1823 127.883 44.7331 128.222 44.1602C128.56 43.5742 128.808 42.8971 128.964 42.1289C129.133 41.3607 129.218 40.5339 129.218 39.6484V39.2383C129.218 38.3789 129.133 37.5716 128.964 36.8164C128.808 36.0482 128.554 35.3711 128.202 34.7852C127.864 34.1862 127.415 33.7174 126.855 33.3789C126.295 33.0404 125.618 32.8711 124.823 32.8711C124.029 32.8711 123.352 33.0404 122.792 33.3789C122.245 33.7174 121.796 34.1862 121.445 34.7852C121.106 35.3711 120.859 36.0482 120.702 36.8164C120.546 37.5716 120.468 38.3789 120.468 39.2383ZM143.545 33.2422V50H137.9V28.8672H143.193L143.545 33.2422ZM142.763 38.6914H141.201C141.201 37.2201 141.377 35.8659 141.728 34.6289C142.093 33.3789 142.62 32.2982 143.31 31.3867C144.013 30.4622 144.879 29.7461 145.908 29.2383C146.936 28.7305 148.128 28.4766 149.482 28.4766C150.42 28.4766 151.279 28.6198 152.06 28.9062C152.841 29.1797 153.512 29.6159 154.072 30.2148C154.645 30.8008 155.087 31.569 155.4 32.5195C155.712 33.457 155.869 34.5833 155.869 35.8984V50H150.244V36.5234C150.244 35.5599 150.114 34.8177 149.853 34.2969C149.593 33.776 149.222 33.4115 148.74 33.2031C148.271 32.9948 147.705 32.8906 147.041 32.8906C146.311 32.8906 145.673 33.0404 145.127 33.3398C144.593 33.6393 144.15 34.056 143.798 34.5898C143.447 35.1107 143.186 35.7227 143.017 36.4258C142.848 37.1289 142.763 37.8841 142.763 38.6914ZM155.341 38.0469L153.33 38.3008C153.33 36.9206 153.499 35.638 153.837 34.4531C154.189 33.2682 154.703 32.2266 155.38 31.3281C156.071 30.4297 156.923 29.7331 157.939 29.2383C158.955 28.7305 160.127 28.4766 161.455 28.4766C162.47 28.4766 163.395 28.6263 164.228 28.9258C165.061 29.2122 165.771 29.6745 166.357 30.3125C166.956 30.9375 167.412 31.7578 167.724 32.7734C168.05 33.7891 168.212 35.0326 168.212 36.5039V50H162.568V36.5039C162.568 35.5273 162.438 34.7852 162.177 34.2773C161.93 33.7565 161.565 33.3984 161.084 33.2031C160.615 32.9948 160.055 32.8906 159.404 32.8906C158.727 32.8906 158.134 33.0273 157.627 33.3008C157.119 33.5612 156.696 33.9258 156.357 34.3945C156.018 34.8633 155.765 35.4102 155.595 36.0352C155.426 36.6471 155.341 37.3177 155.341 38.0469ZM177.793 33.2422V50H172.148V28.8672H177.441L177.793 33.2422ZM177.012 38.6914H175.449C175.449 37.2201 175.625 35.8659 175.977 34.6289C176.341 33.3789 176.868 32.2982 177.559 31.3867C178.262 30.4622 179.128 29.7461 180.156 29.2383C181.185 28.7305 182.376 28.4766 183.73 28.4766C184.668 28.4766 185.527 28.6198 186.309 28.9062C187.09 29.1797 187.76 29.6159 188.32 30.2148C188.893 30.8008 189.336 31.569 189.648 32.5195C189.961 33.457 190.117 34.5833 190.117 35.8984V50H184.492V36.5234C184.492 35.5599 184.362 34.8177 184.102 34.2969C183.841 33.776 183.47 33.4115 182.988 33.2031C182.52 32.9948 181.953 32.8906 181.289 32.8906C180.56 32.8906 179.922 33.0404 179.375 33.3398C178.841 33.6393 178.398 34.056 178.047 34.5898C177.695 35.1107 177.435 35.7227 177.266 36.4258C177.096 37.1289 177.012 37.8841 177.012 38.6914ZM189.59 38.0469L187.578 38.3008C187.578 36.9206 187.747 35.638 188.086 34.4531C188.438 33.2682 188.952 32.2266 189.629 31.3281C190.319 30.4297 191.172 29.7331 192.188 29.2383C193.203 28.7305 194.375 28.4766 195.703 28.4766C196.719 28.4766 197.643 28.6263 198.477 28.9258C199.31 29.2122 200.02 29.6745 200.605 30.3125C201.204 30.9375 201.66 31.7578 201.973 32.7734C202.298 33.7891 202.461 35.0326 202.461 36.5039V50H196.816V36.5039C196.816 35.5273 196.686 34.7852 196.426 34.2773C196.178 33.7565 195.814 33.3984 195.332 33.2031C194.863 32.9948 194.303 32.8906 193.652 32.8906C192.975 32.8906 192.383 33.0273 191.875 33.3008C191.367 33.5612 190.944 33.9258 190.605 34.3945C190.267 34.8633 190.013 35.4102 189.844 36.0352C189.674 36.6471 189.59 37.3177 189.59 38.0469ZM216.143 50.3906C214.502 50.3906 213.031 50.1302 211.729 49.6094C210.427 49.0755 209.32 48.3398 208.409 47.4023C207.51 46.4648 206.82 45.3776 206.338 44.1406C205.857 42.8906 205.616 41.5625 205.616 40.1562V39.375C205.616 37.7734 205.843 36.3086 206.299 34.9805C206.755 33.6523 207.406 32.5 208.252 31.5234C209.112 30.5469 210.153 29.7982 211.377 29.2773C212.601 28.7435 213.982 28.4766 215.518 28.4766C217.015 28.4766 218.343 28.724 219.502 29.2188C220.661 29.7135 221.631 30.4167 222.413 31.3281C223.207 32.2396 223.806 33.3333 224.209 34.6094C224.613 35.8724 224.815 37.2786 224.815 38.8281V41.1719H208.018V37.4219H219.288V36.9922C219.288 36.2109 219.144 35.5143 218.858 34.9023C218.584 34.2773 218.168 33.7826 217.608 33.418C217.048 33.0534 216.332 32.8711 215.459 32.8711C214.717 32.8711 214.079 33.0339 213.545 33.3594C213.011 33.6849 212.575 34.1406 212.237 34.7266C211.911 35.3125 211.664 36.0026 211.495 36.7969C211.338 37.5781 211.26 38.4375 211.26 39.375V40.1562C211.26 41.0026 211.377 41.7839 211.612 42.5C211.859 43.2161 212.204 43.8346 212.647 44.3555C213.103 44.8763 213.649 45.2799 214.288 45.5664C214.939 45.8529 215.674 45.9961 216.495 45.9961C217.51 45.9961 218.454 45.8008 219.327 45.4102C220.212 45.0065 220.974 44.401 221.612 43.5938L224.346 46.5625C223.903 47.2005 223.298 47.8125 222.53 48.3984C221.774 48.9844 220.863 49.4661 219.795 49.8438C218.728 50.2083 217.51 50.3906 216.143 50.3906ZM233.126 33.3789V50H227.501V28.8672H232.774L233.126 33.3789ZM232.305 38.6914H230.782C230.782 37.1289 230.984 35.7227 231.387 34.4727C231.791 33.2096 232.358 32.1354 233.087 31.25C233.816 30.3516 234.682 29.668 235.684 29.1992C236.7 28.7174 237.833 28.4766 239.083 28.4766C240.072 28.4766 240.977 28.6198 241.798 28.9062C242.618 29.1927 243.321 29.6484 243.907 30.2734C244.506 30.8984 244.962 31.7253 245.274 32.7539C245.6 33.7826 245.762 35.0391 245.762 36.5234V50H240.098V36.5039C240.098 35.5664 239.968 34.8372 239.708 34.3164C239.447 33.7956 239.063 33.431 238.555 33.2227C238.061 33.0013 237.449 32.8906 236.72 32.8906C235.964 32.8906 235.307 33.0404 234.747 33.3398C234.2 33.6393 233.744 34.056 233.38 34.5898C233.028 35.1107 232.761 35.7227 232.579 36.4258C232.397 37.1289 232.305 37.8841 232.305 38.6914ZM262.12 45.3906V20H267.784V50H262.687L262.12 45.3906ZM248.761 39.6875V39.2773C248.761 37.6628 248.943 36.1979 249.308 34.8828C249.672 33.5547 250.206 32.4154 250.909 31.4648C251.613 30.5143 252.478 29.7786 253.507 29.2578C254.536 28.737 255.708 28.4766 257.023 28.4766C258.26 28.4766 259.34 28.737 260.265 29.2578C261.202 29.7786 261.997 30.5208 262.648 31.4844C263.312 32.4349 263.846 33.5612 264.249 34.8633C264.653 36.1523 264.946 37.5651 265.128 39.1016V40C264.946 41.4714 264.653 42.8385 264.249 44.1016C263.846 45.3646 263.312 46.4714 262.648 47.4219C261.997 48.3594 261.202 49.0885 260.265 49.6094C259.327 50.1302 258.234 50.3906 256.984 50.3906C255.668 50.3906 254.497 50.1237 253.468 49.5898C252.452 49.056 251.593 48.3073 250.89 47.3438C250.2 46.3802 249.672 45.2474 249.308 43.9453C248.943 42.6432 248.761 41.224 248.761 39.6875ZM254.386 39.2773V39.6875C254.386 40.5599 254.451 41.3737 254.581 42.1289C254.724 42.8841 254.952 43.5547 255.265 44.1406C255.59 44.7135 256.007 45.1628 256.515 45.4883C257.036 45.8008 257.667 45.957 258.409 45.957C259.373 45.957 260.167 45.7422 260.792 45.3125C261.417 44.8698 261.892 44.2643 262.218 43.4961C262.557 42.7279 262.752 41.8424 262.804 40.8398V38.2812C262.765 37.4609 262.648 36.7253 262.452 36.0742C262.27 35.4102 261.997 34.8438 261.632 34.375C261.28 33.9062 260.838 33.5417 260.304 33.2812C259.783 33.0208 259.165 32.8906 258.448 32.8906C257.719 32.8906 257.094 33.0599 256.573 33.3984C256.053 33.724 255.629 34.1732 255.304 34.7461C254.991 35.319 254.757 35.9961 254.601 36.7773C254.458 37.5456 254.386 38.3789 254.386 39.2773ZM281.505 50.3906C279.865 50.3906 278.393 50.1302 277.091 49.6094C275.789 49.0755 274.683 48.3398 273.771 47.4023C272.873 46.4648 272.183 45.3776 271.701 44.1406C271.219 42.8906 270.978 41.5625 270.978 40.1562V39.375C270.978 37.7734 271.206 36.3086 271.662 34.9805C272.117 33.6523 272.768 32.5 273.615 31.5234C274.474 30.5469 275.516 29.7982 276.74 29.2773C277.964 28.7435 279.344 28.4766 280.88 28.4766C282.378 28.4766 283.706 28.724 284.865 29.2188C286.024 29.7135 286.994 30.4167 287.775 31.3281C288.569 32.2396 289.168 33.3333 289.572 34.6094C289.976 35.8724 290.177 37.2786 290.177 38.8281V41.1719H273.38V37.4219H284.65V36.9922C284.65 36.2109 284.507 35.5143 284.22 34.9023C283.947 34.2773 283.53 33.7826 282.97 33.418C282.41 33.0534 281.694 32.8711 280.822 32.8711C280.08 32.8711 279.442 33.0339 278.908 33.3594C278.374 33.6849 277.938 34.1406 277.599 34.7266C277.274 35.3125 277.026 36.0026 276.857 36.7969C276.701 37.5781 276.623 38.4375 276.623 39.375V40.1562C276.623 41.0026 276.74 41.7839 276.974 42.5C277.222 43.2161 277.567 43.8346 278.009 44.3555C278.465 44.8763 279.012 45.2799 279.65 45.5664C280.301 45.8529 281.037 45.9961 281.857 45.9961C282.873 45.9961 283.817 45.8008 284.689 45.4102C285.574 45.0065 286.336 44.401 286.974 43.5938L289.709 46.5625C289.266 47.2005 288.66 47.8125 287.892 48.3984C287.137 48.9844 286.226 49.4661 285.158 49.8438C284.09 50.2083 282.873 50.3906 281.505 50.3906ZM305.461 45.3906V20H311.125V50H306.027L305.461 45.3906ZM292.102 39.6875V39.2773C292.102 37.6628 292.284 36.1979 292.648 34.8828C293.013 33.5547 293.547 32.4154 294.25 31.4648C294.953 30.5143 295.819 29.7786 296.848 29.2578C297.876 28.737 299.048 28.4766 300.363 28.4766C301.6 28.4766 302.681 28.737 303.605 29.2578C304.543 29.7786 305.337 30.5208 305.988 31.4844C306.652 32.4349 307.186 33.5612 307.59 34.8633C307.993 36.1523 308.286 37.5651 308.469 39.1016V40C308.286 41.4714 307.993 42.8385 307.59 44.1016C307.186 45.3646 306.652 46.4714 305.988 47.4219C305.337 48.3594 304.543 49.0885 303.605 49.6094C302.668 50.1302 301.574 50.3906 300.324 50.3906C299.009 50.3906 297.837 50.1237 296.809 49.5898C295.793 49.056 294.934 48.3073 294.23 47.3438C293.54 46.3802 293.013 45.2474 292.648 43.9453C292.284 42.6432 292.102 41.224 292.102 39.6875ZM297.727 39.2773V39.6875C297.727 40.5599 297.792 41.3737 297.922 42.1289C298.065 42.8841 298.293 43.5547 298.605 44.1406C298.931 44.7135 299.348 45.1628 299.855 45.4883C300.376 45.8008 301.008 45.957 301.75 45.957C302.714 45.957 303.508 45.7422 304.133 45.3125C304.758 44.8698 305.233 44.2643 305.559 43.4961C305.897 42.7279 306.092 41.8424 306.145 40.8398V38.2812C306.105 37.4609 305.988 36.7253 305.793 36.0742C305.611 35.4102 305.337 34.8438 304.973 34.375C304.621 33.9062 304.178 33.5417 303.645 33.2812C303.124 33.0208 302.505 32.8906 301.789 32.8906C301.06 32.8906 300.435 33.0599 299.914 33.3984C299.393 33.724 298.97 34.1732 298.645 34.7461C298.332 35.319 298.098 35.9961 297.941 36.7773C297.798 37.5456 297.727 38.3789 297.727 39.2773Z" fill="white"/>
</svg>
