<svg width="51" height="50" viewBox="0 0 51 50" fill="none" xmlns="http://www.w3.org/2000/svg">
<path d="M22.4602 0C34.5515 0 44.3546 9.56883 44.3546 21.3733C44.3546 25.5675 43.1175 29.48 40.9794 32.7812C40.9951 32.7878 41.0105 32.7939 41.0263 32.8008L50.5527 42.0996L42.4603 50L32.5908 40.363C32.5937 40.3494 32.5977 40.3359 32.6007 40.3222C29.569 41.8718 26.1192 42.7482 22.4601 42.7482C10.3687 42.7482 0.567379 33.1778 0.567379 21.3733C0.567509 9.56883 10.3689 0 22.4602 0ZM22.4602 9.49487C15.7407 9.49487 10.2948 14.8132 10.2948 21.3733C10.2948 27.9333 15.7407 33.2516 22.4602 33.2516C29.1797 33.2516 34.6273 27.9333 34.6273 21.3733C34.6273 14.8132 29.1797 9.49487 22.4602 9.49487Z" fill="white"/>
</svg>
