<svg width="51" height="50" viewBox="0 0 51 50" fill="none" xmlns="http://www.w3.org/2000/svg">
<path d="M22.682 0C34.7734 0 44.5765 9.56882 44.5765 21.3732C44.5765 25.5675 43.3394 29.48 41.2013 32.7811C41.217 32.7878 41.2324 32.7938 41.2482 32.8008L50.7747 42.0996L42.6822 49.9999L32.8126 40.3629C32.8156 40.3494 32.8195 40.3358 32.8226 40.3222C29.7909 41.8717 26.3411 42.7482 22.682 42.7482C10.5905 42.7482 0.789127 33.1778 0.789127 21.3733C0.789253 9.56882 10.5906 0 22.682 0ZM22.682 9.49486C15.9625 9.49486 10.5166 14.8131 10.5166 21.3732C10.5166 27.9333 15.9625 33.2516 22.682 33.2516C29.4015 33.2516 34.8491 27.9333 34.8491 21.3732C34.8491 14.8131 29.4016 9.49486 22.682 9.49486Z" fill="#757575"/>
</svg>
