<svg width="360" height="72" viewBox="0 0 360 72" fill="none" xmlns="http://www.w3.org/2000/svg">
<rect width="360" height="72" rx="30" fill="#964D9F"/>
<path d="M97.0297 40.5664H102.87C102.752 42.4805 102.225 44.1797 101.287 45.6641C100.363 47.1484 99.0674 48.3073 97.4008 49.1406C95.7471 49.974 93.7549 50.3906 91.4242 50.3906C89.6013 50.3906 87.9672 50.0781 86.5219 49.4531C85.0766 48.8151 83.8396 47.9036 82.8109 46.7188C81.7953 45.5339 81.0206 44.1016 80.4867 42.4219C79.9529 40.7422 79.6859 38.8607 79.6859 36.7773V34.8047C79.6859 32.7214 79.9594 30.8398 80.5062 29.1602C81.0661 27.4674 81.8604 26.0286 82.8891 24.8438C83.9307 23.6589 85.1742 22.7474 86.6195 22.1094C88.0648 21.4714 89.6794 21.1523 91.4633 21.1523C93.8331 21.1523 95.8318 21.582 97.4594 22.4414C99.1 23.3008 100.37 24.4857 101.268 25.9961C102.179 27.5065 102.726 29.2253 102.909 31.1523H97.0492C96.9841 30.0065 96.7562 29.0365 96.3656 28.2422C95.975 27.4349 95.3826 26.8294 94.5883 26.4258C93.807 26.0091 92.7654 25.8008 91.4633 25.8008C90.4867 25.8008 89.6339 25.9831 88.9047 26.3477C88.1755 26.7122 87.5635 27.2656 87.0687 28.0078C86.574 28.75 86.2029 29.6875 85.9555 30.8203C85.7211 31.9401 85.6039 33.2552 85.6039 34.7656V36.7773C85.6039 38.2487 85.7146 39.5443 85.9359 40.6641C86.1573 41.7708 86.4958 42.7083 86.9516 43.4766C87.4203 44.2318 88.0193 44.8047 88.7484 45.1953C89.4906 45.5729 90.3826 45.7617 91.4242 45.7617C92.6482 45.7617 93.6573 45.5664 94.4516 45.1758C95.2458 44.7852 95.8513 44.2057 96.268 43.4375C96.6977 42.6693 96.9516 41.7122 97.0297 40.5664ZM105.067 39.6484V39.2383C105.067 37.6888 105.289 36.263 105.731 34.9609C106.174 33.6458 106.818 32.5065 107.665 31.543C108.511 30.5794 109.553 29.8307 110.79 29.2969C112.027 28.75 113.446 28.4766 115.048 28.4766C116.649 28.4766 118.075 28.75 119.325 29.2969C120.575 29.8307 121.623 30.5794 122.47 31.543C123.329 32.5065 123.98 33.6458 124.423 34.9609C124.865 36.263 125.087 37.6888 125.087 39.2383V39.6484C125.087 41.1849 124.865 42.6107 124.423 43.9258C123.98 45.2279 123.329 46.3672 122.47 47.3438C121.623 48.3073 120.582 49.056 119.345 49.5898C118.108 50.1237 116.688 50.3906 115.087 50.3906C113.485 50.3906 112.059 50.1237 110.809 49.5898C109.572 49.056 108.524 48.3073 107.665 47.3438C106.818 46.3672 106.174 45.2279 105.731 43.9258C105.289 42.6107 105.067 41.1849 105.067 39.6484ZM110.692 39.2383V39.6484C110.692 40.5339 110.77 41.3607 110.927 42.1289C111.083 42.8971 111.33 43.5742 111.669 44.1602C112.02 44.7331 112.476 45.1823 113.036 45.5078C113.596 45.8333 114.279 45.9961 115.087 45.9961C115.868 45.9961 116.539 45.8333 117.098 45.5078C117.658 45.1823 118.108 44.7331 118.446 44.1602C118.785 43.5742 119.032 42.8971 119.188 42.1289C119.358 41.3607 119.442 40.5339 119.442 39.6484V39.2383C119.442 38.3789 119.358 37.5716 119.188 36.8164C119.032 36.0482 118.778 35.3711 118.427 34.7852C118.088 34.1862 117.639 33.7174 117.079 33.3789C116.519 33.0404 115.842 32.8711 115.048 32.8711C114.253 32.8711 113.576 33.0404 113.016 33.3789C112.47 33.7174 112.02 34.1862 111.669 34.7852C111.33 35.3711 111.083 36.0482 110.927 36.8164C110.77 37.5716 110.692 38.3789 110.692 39.2383ZM133.769 33.2422V50H128.124V28.8672H133.417L133.769 33.2422ZM132.988 38.6914H131.425C131.425 37.2201 131.601 35.8659 131.952 34.6289C132.317 33.3789 132.844 32.2982 133.534 31.3867C134.238 30.4622 135.103 29.7461 136.132 29.2383C137.161 28.7305 138.352 28.4766 139.706 28.4766C140.644 28.4766 141.503 28.6198 142.284 28.9062C143.066 29.1797 143.736 29.6159 144.296 30.2148C144.869 30.8008 145.312 31.569 145.624 32.5195C145.937 33.457 146.093 34.5833 146.093 35.8984V50H140.468V36.5234C140.468 35.5599 140.338 34.8177 140.077 34.2969C139.817 33.776 139.446 33.4115 138.964 33.2031C138.495 32.9948 137.929 32.8906 137.265 32.8906C136.536 32.8906 135.898 33.0404 135.351 33.3398C134.817 33.6393 134.374 34.056 134.023 34.5898C133.671 35.1107 133.411 35.7227 133.241 36.4258C133.072 37.1289 132.988 37.8841 132.988 38.6914ZM145.566 38.0469L143.554 38.3008C143.554 36.9206 143.723 35.638 144.062 34.4531C144.413 33.2682 144.928 32.2266 145.605 31.3281C146.295 30.4297 147.148 29.7331 148.163 29.2383C149.179 28.7305 150.351 28.4766 151.679 28.4766C152.695 28.4766 153.619 28.6263 154.452 28.9258C155.286 29.2122 155.995 29.6745 156.581 30.3125C157.18 30.9375 157.636 31.7578 157.948 32.7734C158.274 33.7891 158.437 35.0326 158.437 36.5039V50H152.792V36.5039C152.792 35.5273 152.662 34.7852 152.402 34.2773C152.154 33.7565 151.79 33.3984 151.308 33.2031C150.839 32.9948 150.279 32.8906 149.628 32.8906C148.951 32.8906 148.359 33.0273 147.851 33.3008C147.343 33.5612 146.92 33.9258 146.581 34.3945C146.243 34.8633 145.989 35.4102 145.82 36.0352C145.65 36.6471 145.566 37.3177 145.566 38.0469ZM168.017 33.2422V50H162.373V28.8672H167.666L168.017 33.2422ZM167.236 38.6914H165.673C165.673 37.2201 165.849 35.8659 166.201 34.6289C166.565 33.3789 167.093 32.2982 167.783 31.3867C168.486 30.4622 169.352 29.7461 170.38 29.2383C171.409 28.7305 172.601 28.4766 173.955 28.4766C174.892 28.4766 175.752 28.6198 176.533 28.9062C177.314 29.1797 177.985 29.6159 178.545 30.2148C179.117 30.8008 179.56 31.569 179.873 32.5195C180.185 33.457 180.341 34.5833 180.341 35.8984V50H174.716V36.5234C174.716 35.5599 174.586 34.8177 174.326 34.2969C174.065 33.776 173.694 33.4115 173.212 33.2031C172.744 32.9948 172.177 32.8906 171.513 32.8906C170.784 32.8906 170.146 33.0404 169.599 33.3398C169.065 33.6393 168.623 34.056 168.271 34.5898C167.92 35.1107 167.659 35.7227 167.49 36.4258C167.321 37.1289 167.236 37.8841 167.236 38.6914ZM179.814 38.0469L177.802 38.3008C177.802 36.9206 177.972 35.638 178.31 34.4531C178.662 33.2682 179.176 32.2266 179.853 31.3281C180.543 30.4297 181.396 29.7331 182.412 29.2383C183.427 28.7305 184.599 28.4766 185.927 28.4766C186.943 28.4766 187.867 28.6263 188.701 28.9258C189.534 29.2122 190.244 29.6745 190.83 30.3125C191.429 30.9375 191.884 31.7578 192.197 32.7734C192.522 33.7891 192.685 35.0326 192.685 36.5039V50H187.041V36.5039C187.041 35.5273 186.91 34.7852 186.65 34.2773C186.403 33.7565 186.038 33.3984 185.556 33.2031C185.087 32.9948 184.528 32.8906 183.877 32.8906C183.199 32.8906 182.607 33.0273 182.099 33.3008C181.591 33.5612 181.168 33.9258 180.83 34.3945C180.491 34.8633 180.237 35.4102 180.068 36.0352C179.899 36.6471 179.814 37.3177 179.814 38.0469ZM209.141 44.9414V28.8672H214.766V50H209.473L209.141 44.9414ZM209.766 40.6055L211.426 40.5664C211.426 41.9727 211.263 43.2812 210.938 44.4922C210.612 45.6901 210.124 46.7318 209.473 47.6172C208.822 48.4896 208.001 49.1732 207.012 49.668C206.022 50.1497 204.857 50.3906 203.516 50.3906C202.487 50.3906 201.536 50.2474 200.664 49.9609C199.805 49.6615 199.062 49.1992 198.438 48.5742C197.826 47.9362 197.344 47.1224 196.992 46.1328C196.654 45.1302 196.484 43.9258 196.484 42.5195V28.8672H202.109V42.5586C202.109 43.1836 202.181 43.7109 202.324 44.1406C202.48 44.5703 202.695 44.9219 202.969 45.1953C203.242 45.4688 203.561 45.6641 203.926 45.7812C204.303 45.8984 204.72 45.957 205.176 45.957C206.335 45.957 207.246 45.7227 207.91 45.2539C208.587 44.7852 209.062 44.1471 209.336 43.3398C209.622 42.5195 209.766 41.6081 209.766 40.6055ZM224.17 33.3789V50H218.545V28.8672H223.819L224.17 33.3789ZM223.35 38.6914H221.827C221.827 37.1289 222.028 35.7227 222.432 34.4727C222.836 33.2096 223.402 32.1354 224.131 31.25C224.86 30.3516 225.726 29.668 226.729 29.1992C227.745 28.7174 228.877 28.4766 230.127 28.4766C231.117 28.4766 232.022 28.6198 232.842 28.9062C233.663 29.1927 234.366 29.6484 234.952 30.2734C235.551 30.8984 236.006 31.7253 236.319 32.7539C236.644 33.7826 236.807 35.0391 236.807 36.5234V50H231.143V36.5039C231.143 35.5664 231.013 34.8372 230.752 34.3164C230.492 33.7956 230.108 33.431 229.6 33.2227C229.105 33.0013 228.493 32.8906 227.764 32.8906C227.009 32.8906 226.351 33.0404 225.791 33.3398C225.245 33.6393 224.789 34.056 224.424 34.5898C224.073 35.1107 223.806 35.7227 223.623 36.4258C223.441 37.1289 223.35 37.8841 223.35 38.6914ZM246.622 28.8672V50H240.977V28.8672H246.622ZM240.626 23.3594C240.626 22.5391 240.912 21.862 241.485 21.3281C242.058 20.7943 242.826 20.5273 243.79 20.5273C244.74 20.5273 245.502 20.7943 246.075 21.3281C246.661 21.862 246.954 22.5391 246.954 23.3594C246.954 24.1797 246.661 24.8568 246.075 25.3906C245.502 25.9245 244.74 26.1914 243.79 26.1914C242.826 26.1914 242.058 25.9245 241.485 25.3906C240.912 24.8568 240.626 24.1797 240.626 23.3594ZM261.222 28.8672V32.8516H248.917V28.8672H261.222ZM251.964 23.6523H257.589V43.6328C257.589 44.2448 257.667 44.7135 257.823 45.0391C257.993 45.3646 258.24 45.5924 258.566 45.7227C258.891 45.8398 259.301 45.8984 259.796 45.8984C260.148 45.8984 260.46 45.8854 260.734 45.8594C261.02 45.8203 261.261 45.7812 261.456 45.7422L261.476 49.8828C260.994 50.0391 260.473 50.1628 259.913 50.2539C259.353 50.3451 258.735 50.3906 258.058 50.3906C256.821 50.3906 255.74 50.1888 254.816 49.7852C253.904 49.3685 253.201 48.7044 252.706 47.793C252.211 46.8815 251.964 45.6836 251.964 44.1992V23.6523ZM270.295 47.6172L275.9 28.8672H281.935L273.439 53.1836C273.257 53.7174 273.009 54.2904 272.697 54.9023C272.397 55.5143 271.987 56.0938 271.466 56.6406C270.959 57.2005 270.314 57.6562 269.533 58.0078C268.765 58.3594 267.821 58.5352 266.701 58.5352C266.167 58.5352 265.731 58.5026 265.392 58.4375C265.054 58.3724 264.65 58.2812 264.181 58.1641V54.043C264.324 54.043 264.474 54.043 264.63 54.043C264.787 54.056 264.936 54.0625 265.08 54.0625C265.822 54.0625 266.427 53.9779 266.896 53.8086C267.365 53.6393 267.742 53.3789 268.029 53.0273C268.315 52.6888 268.543 52.2461 268.712 51.6992L270.295 47.6172ZM267.951 28.8672L272.541 44.1797L273.341 50.1367L269.513 50.5469L261.916 28.8672H267.951Z" fill="white"/>
</svg>
