<svg width="62" height="62" viewBox="0 0 62 62" fill="none" xmlns="http://www.w3.org/2000/svg">
<path d="M0 31C0 13.8792 13.8792 0 31 0C48.1208 0 62 13.8792 62 31C62 48.1208 48.1208 62 31 62C13.8792 62 0 48.1208 0 31Z" fill="white"/>
<path d="M31 0C13.8792 0 0 13.8792 0 31C0 48.1208 13.8792 62 31 62C48.1208 62 62 48.1208 62 31C62 13.8792 48.1208 0 31 0ZM27.2158 11.1633H34.7842V19.8556H39.2003L31 32.158L22.7997 19.8556H27.2158V11.1633ZM12.3743 30.4627H24.6123C24.6123 33.9897 27.4729 36.8541 31 36.8541C34.5271 36.8541 37.3877 33.9897 37.3877 30.4627H49.6257V48.4148H12.3743V30.4627Z" fill="#964D9F"/>
</svg>
