<svg width="360" height="72" viewBox="0 0 360 72" fill="none" xmlns="http://www.w3.org/2000/svg">
<rect width="360" height="72" rx="30" fill="white"/>
<path d="M70.5984 26.4258L62.8641 50H56.6336L67.2 21.5625H71.1648L70.5984 26.4258ZM77.0242 50L69.2703 26.4258L68.6453 21.5625H72.6492L83.2742 50H77.0242ZM76.6727 39.4141V44.0039H61.6531V39.4141H76.6727ZM97.6398 45.3906V20H103.304V50H98.2062L97.6398 45.3906ZM84.2805 39.6875V39.2773C84.2805 37.6628 84.4628 36.1979 84.8273 34.8828C85.1919 33.5547 85.7258 32.4154 86.4289 31.4648C87.132 30.5143 87.9979 29.7786 89.0266 29.2578C90.0552 28.737 91.2271 28.4766 92.5422 28.4766C93.7792 28.4766 94.8599 28.737 95.7844 29.2578C96.7219 29.7786 97.5161 30.5208 98.1672 31.4844C98.8312 32.4349 99.3651 33.5612 99.7687 34.8633C100.172 36.1523 100.465 37.5651 100.648 39.1016V40C100.465 41.4714 100.172 42.8385 99.7687 44.1016C99.3651 45.3646 98.8312 46.4714 98.1672 47.4219C97.5161 48.3594 96.7219 49.0885 95.7844 49.6094C94.8469 50.1302 93.7531 50.3906 92.5031 50.3906C91.188 50.3906 90.0161 50.1237 88.9875 49.5898C87.9719 49.056 87.1125 48.3073 86.4094 47.3438C85.7193 46.3802 85.1919 45.2474 84.8273 43.9453C84.4628 42.6432 84.2805 41.224 84.2805 39.6875ZM89.9055 39.2773V39.6875C89.9055 40.5599 89.9706 41.3737 90.1008 42.1289C90.244 42.8841 90.4719 43.5547 90.7844 44.1406C91.1099 44.7135 91.5266 45.1628 92.0344 45.4883C92.5552 45.8008 93.1867 45.957 93.9289 45.957C94.8924 45.957 95.6867 45.7422 96.3117 45.3125C96.9367 44.8698 97.412 44.2643 97.7375 43.4961C98.076 42.7279 98.2713 41.8424 98.3234 40.8398V38.2812C98.2844 37.4609 98.1672 36.7253 97.9719 36.0742C97.7896 35.4102 97.5161 34.8438 97.1516 34.375C96.8 33.9062 96.3573 33.5417 95.8234 33.2812C95.3026 33.0208 94.6841 32.8906 93.968 32.8906C93.2388 32.8906 92.6138 33.0599 92.093 33.3984C91.5721 33.724 91.149 34.1732 90.8234 34.7461C90.5109 35.319 90.2766 35.9961 90.1203 36.7773C89.9771 37.5456 89.9055 38.3789 89.9055 39.2773ZM119.779 45.3906V20H125.443V50H120.345L119.779 45.3906ZM106.42 39.6875V39.2773C106.42 37.6628 106.602 36.1979 106.966 34.8828C107.331 33.5547 107.865 32.4154 108.568 31.4648C109.271 30.5143 110.137 29.7786 111.166 29.2578C112.194 28.737 113.366 28.4766 114.681 28.4766C115.918 28.4766 116.999 28.737 117.923 29.2578C118.861 29.7786 119.655 30.5208 120.306 31.4844C120.97 32.4349 121.504 33.5612 121.908 34.8633C122.311 36.1523 122.604 37.5651 122.787 39.1016V40C122.604 41.4714 122.311 42.8385 121.908 44.1016C121.504 45.3646 120.97 46.4714 120.306 47.4219C119.655 48.3594 118.861 49.0885 117.923 49.6094C116.986 50.1302 115.892 50.3906 114.642 50.3906C113.327 50.3906 112.155 50.1237 111.127 49.5898C110.111 49.056 109.252 48.3073 108.548 47.3438C107.858 46.3802 107.331 45.2474 106.966 43.9453C106.602 42.6432 106.42 41.224 106.42 39.6875ZM112.045 39.2773V39.6875C112.045 40.5599 112.11 41.3737 112.24 42.1289C112.383 42.8841 112.611 43.5547 112.923 44.1406C113.249 44.7135 113.666 45.1628 114.173 45.4883C114.694 45.8008 115.326 45.957 116.068 45.957C117.032 45.957 117.826 45.7422 118.451 45.3125C119.076 44.8698 119.551 44.2643 119.877 43.4961C120.215 42.7279 120.41 41.8424 120.462 40.8398V38.2812C120.423 37.4609 120.306 36.7253 120.111 36.0742C119.929 35.4102 119.655 34.8438 119.291 34.375C118.939 33.9062 118.496 33.5417 117.962 33.2812C117.442 33.0208 116.823 32.8906 116.107 32.8906C115.378 32.8906 114.753 33.0599 114.232 33.3984C113.711 33.724 113.288 34.1732 112.962 34.7461C112.65 35.319 112.416 35.9961 112.259 36.7773C112.116 37.5456 112.045 38.3789 112.045 39.2773ZM139.35 21.5625H149.955C152.13 21.5625 153.998 21.888 155.561 22.5391C157.136 23.1901 158.347 24.1536 159.194 25.4297C160.04 26.7057 160.463 28.2747 160.463 30.1367C160.463 31.6602 160.203 32.9688 159.682 34.0625C159.174 35.1432 158.452 36.0482 157.514 36.7773C156.59 37.4935 155.502 38.0664 154.252 38.4961L152.397 39.4727H143.178L143.139 34.9023H149.995C151.023 34.9023 151.876 34.7201 152.553 34.3555C153.23 33.9909 153.738 33.4831 154.077 32.832C154.428 32.181 154.604 31.4258 154.604 30.5664C154.604 29.6549 154.435 28.8672 154.096 28.2031C153.758 27.5391 153.243 27.0312 152.553 26.6797C151.863 26.3281 150.997 26.1523 149.955 26.1523H145.209V50H139.35V21.5625ZM155.248 50L148.764 37.3242L154.955 37.2852L161.518 49.7266V50H155.248ZM173.95 50.3906C172.309 50.3906 170.838 50.1302 169.536 49.6094C168.234 49.0755 167.127 48.3398 166.216 47.4023C165.317 46.4648 164.627 45.3776 164.145 44.1406C163.664 42.8906 163.423 41.5625 163.423 40.1562V39.375C163.423 37.7734 163.651 36.3086 164.106 34.9805C164.562 33.6523 165.213 32.5 166.059 31.5234C166.919 30.5469 167.96 29.7982 169.184 29.2773C170.408 28.7435 171.789 28.4766 173.325 28.4766C174.822 28.4766 176.151 28.724 177.309 29.2188C178.468 29.7135 179.438 30.4167 180.22 31.3281C181.014 32.2396 181.613 33.3333 182.016 34.6094C182.42 35.8724 182.622 37.2786 182.622 38.8281V41.1719H165.825V37.4219H177.095V36.9922C177.095 36.2109 176.951 35.5143 176.665 34.9023C176.391 34.2773 175.975 33.7826 175.415 33.418C174.855 33.0534 174.139 32.8711 173.266 32.8711C172.524 32.8711 171.886 33.0339 171.352 33.3594C170.818 33.6849 170.382 34.1406 170.044 34.7266C169.718 35.3125 169.471 36.0026 169.302 36.7969C169.145 37.5781 169.067 38.4375 169.067 39.375V40.1562C169.067 41.0026 169.184 41.7839 169.419 42.5C169.666 43.2161 170.011 43.8346 170.454 44.3555C170.91 44.8763 171.457 45.2799 172.095 45.5664C172.746 45.8529 173.481 45.9961 174.302 45.9961C175.317 45.9961 176.261 45.8008 177.134 45.4102C178.019 45.0065 178.781 44.401 179.419 43.5938L182.153 46.5625C181.71 47.2005 181.105 47.8125 180.337 48.3984C179.582 48.9844 178.67 49.4661 177.602 49.8438C176.535 50.2083 175.317 50.3906 173.95 50.3906ZM196.851 44.1602C196.851 43.7565 196.734 43.3919 196.499 43.0664C196.265 42.7409 195.829 42.4414 195.191 42.168C194.566 41.8815 193.661 41.6211 192.476 41.3867C191.408 41.1523 190.412 40.8594 189.487 40.5078C188.576 40.1432 187.782 39.707 187.105 39.1992C186.441 38.6914 185.92 38.0924 185.542 37.4023C185.165 36.6992 184.976 35.8984 184.976 35C184.976 34.1146 185.165 33.2812 185.542 32.5C185.933 31.7188 186.486 31.0286 187.202 30.4297C187.931 29.8177 188.817 29.3424 189.859 29.0039C190.913 28.6523 192.098 28.4766 193.413 28.4766C195.249 28.4766 196.825 28.7695 198.14 29.3555C199.468 29.9414 200.484 30.7487 201.187 31.7773C201.903 32.793 202.261 33.9518 202.261 35.2539H196.636C196.636 34.707 196.519 34.2188 196.284 33.7891C196.063 33.3464 195.711 33.0013 195.23 32.7539C194.761 32.4935 194.149 32.3633 193.394 32.3633C192.769 32.3633 192.228 32.474 191.773 32.6953C191.317 32.9036 190.965 33.1901 190.718 33.5547C190.484 33.9062 190.366 34.2969 190.366 34.7266C190.366 35.0521 190.431 35.3451 190.562 35.6055C190.705 35.8529 190.933 36.0807 191.245 36.2891C191.558 36.4974 191.961 36.6927 192.456 36.875C192.964 37.0443 193.589 37.2005 194.331 37.3438C195.855 37.6562 197.215 38.0664 198.413 38.5742C199.611 39.069 200.562 39.7461 201.265 40.6055C201.968 41.4518 202.32 42.5651 202.32 43.9453C202.32 44.8828 202.111 45.7422 201.695 46.5234C201.278 47.3047 200.679 47.9883 199.898 48.5742C199.116 49.1471 198.179 49.5964 197.085 49.9219C196.004 50.2344 194.787 50.3906 193.433 50.3906C191.467 50.3906 189.8 50.0391 188.433 49.3359C187.079 48.6328 186.05 47.7409 185.347 46.6602C184.657 45.5664 184.312 44.4466 184.312 43.3008H189.644C189.67 44.069 189.865 44.6875 190.23 45.1562C190.607 45.625 191.083 45.9635 191.655 46.1719C192.241 46.3802 192.873 46.4844 193.55 46.4844C194.279 46.4844 194.885 46.3867 195.366 46.1914C195.848 45.9831 196.213 45.7096 196.46 45.3711C196.721 45.0195 196.851 44.6159 196.851 44.1602ZM204.673 39.6484V39.2383C204.673 37.6888 204.895 36.263 205.337 34.9609C205.78 33.6458 206.425 32.5065 207.271 31.543C208.117 30.5794 209.159 29.8307 210.396 29.2969C211.633 28.75 213.052 28.4766 214.654 28.4766C216.255 28.4766 217.681 28.75 218.931 29.2969C220.181 29.8307 221.229 30.5794 222.076 31.543C222.935 32.5065 223.586 33.6458 224.029 34.9609C224.472 36.263 224.693 37.6888 224.693 39.2383V39.6484C224.693 41.1849 224.472 42.6107 224.029 43.9258C223.586 45.2279 222.935 46.3672 222.076 47.3438C221.229 48.3073 220.188 49.056 218.951 49.5898C217.714 50.1237 216.295 50.3906 214.693 50.3906C213.091 50.3906 211.666 50.1237 210.416 49.5898C209.179 49.056 208.13 48.3073 207.271 47.3438C206.425 46.3672 205.78 45.2279 205.337 43.9258C204.895 42.6107 204.673 41.1849 204.673 39.6484ZM210.298 39.2383V39.6484C210.298 40.5339 210.377 41.3607 210.533 42.1289C210.689 42.8971 210.936 43.5742 211.275 44.1602C211.627 44.7331 212.082 45.1823 212.642 45.5078C213.202 45.8333 213.886 45.9961 214.693 45.9961C215.474 45.9961 216.145 45.8333 216.705 45.5078C217.265 45.1823 217.714 44.7331 218.052 44.1602C218.391 43.5742 218.638 42.8971 218.795 42.1289C218.964 41.3607 219.048 40.5339 219.048 39.6484V39.2383C219.048 38.3789 218.964 37.5716 218.795 36.8164C218.638 36.0482 218.384 35.3711 218.033 34.7852C217.694 34.1862 217.245 33.7174 216.685 33.3789C216.125 33.0404 215.448 32.8711 214.654 32.8711C213.86 32.8711 213.183 33.0404 212.623 33.3789C212.076 33.7174 211.627 34.1862 211.275 34.7852C210.936 35.3711 210.689 36.0482 210.533 36.8164C210.377 37.5716 210.298 38.3789 210.298 39.2383ZM240.25 44.9414V28.8672H245.875V50H240.582L240.25 44.9414ZM240.875 40.6055L242.535 40.5664C242.535 41.9727 242.372 43.2812 242.047 44.4922C241.721 45.6901 241.233 46.7318 240.582 47.6172C239.931 48.4896 239.111 49.1732 238.121 49.668C237.132 50.1497 235.966 50.3906 234.625 50.3906C233.596 50.3906 232.646 50.2474 231.773 49.9609C230.914 49.6615 230.172 49.1992 229.547 48.5742C228.935 47.9362 228.453 47.1224 228.102 46.1328C227.763 45.1302 227.594 43.9258 227.594 42.5195V28.8672H233.219V42.5586C233.219 43.1836 233.29 43.7109 233.434 44.1406C233.59 44.5703 233.805 44.9219 234.078 45.1953C234.352 45.4688 234.671 45.6641 235.035 45.7812C235.413 45.8984 235.829 45.957 236.285 45.957C237.444 45.957 238.355 45.7227 239.02 45.2539C239.697 44.7852 240.172 44.1471 240.445 43.3398C240.732 42.5195 240.875 41.6081 240.875 40.6055ZM255.397 33.4766V50H249.772V28.8672H255.065L255.397 33.4766ZM261.764 28.7305L261.666 33.9453C261.393 33.9062 261.061 33.8737 260.67 33.8477C260.293 33.8086 259.948 33.7891 259.635 33.7891C258.841 33.7891 258.151 33.8932 257.565 34.1016C256.992 34.2969 256.51 34.5898 256.12 34.9805C255.742 35.3711 255.455 35.8464 255.26 36.4062C255.078 36.9661 254.974 37.6042 254.948 38.3203L253.815 37.9688C253.815 36.6016 253.952 35.3451 254.225 34.1992C254.498 33.0404 254.896 32.0312 255.416 31.1719C255.95 30.3125 256.601 29.6484 257.37 29.1797C258.138 28.7109 259.017 28.4766 260.006 28.4766C260.319 28.4766 260.638 28.5026 260.963 28.5547C261.289 28.5938 261.556 28.6523 261.764 28.7305ZM272.36 45.9961C273.05 45.9961 273.662 45.8659 274.196 45.6055C274.73 45.332 275.147 44.9544 275.446 44.4727C275.759 43.9779 275.921 43.3984 275.934 42.7344H281.227C281.214 44.2188 280.817 45.5404 280.036 46.6992C279.255 47.8451 278.207 48.75 276.891 49.4141C275.576 50.0651 274.105 50.3906 272.477 50.3906C270.837 50.3906 269.404 50.1172 268.18 49.5703C266.97 49.0234 265.96 48.2682 265.153 47.3047C264.346 46.3281 263.74 45.1953 263.337 43.9062C262.933 42.6042 262.731 41.2109 262.731 39.7266V39.1602C262.731 37.6628 262.933 36.2695 263.337 34.9805C263.74 33.6784 264.346 32.5456 265.153 31.582C265.96 30.6055 266.97 29.8438 268.18 29.2969C269.391 28.75 270.811 28.4766 272.438 28.4766C274.17 28.4766 275.687 28.8086 276.989 29.4727C278.304 30.1367 279.333 31.0872 280.075 32.3242C280.83 33.5482 281.214 35 281.227 36.6797H275.934C275.921 35.9766 275.772 35.3385 275.485 34.7656C275.212 34.1927 274.808 33.737 274.274 33.3984C273.753 33.0469 273.109 32.8711 272.341 32.8711C271.52 32.8711 270.85 33.0469 270.329 33.3984C269.808 33.737 269.404 34.2057 269.118 34.8047C268.832 35.3906 268.63 36.0612 268.513 36.8164C268.408 37.5586 268.356 38.3398 268.356 39.1602V39.7266C268.356 40.5469 268.408 41.3346 268.513 42.0898C268.617 42.8451 268.812 43.5156 269.098 44.1016C269.398 44.6875 269.808 45.1497 270.329 45.4883C270.85 45.8268 271.527 45.9961 272.36 45.9961ZM293.816 50.3906C292.175 50.3906 290.704 50.1302 289.402 49.6094C288.099 49.0755 286.993 48.3398 286.081 47.4023C285.183 46.4648 284.493 45.3776 284.011 44.1406C283.529 42.8906 283.288 41.5625 283.288 40.1562V39.375C283.288 37.7734 283.516 36.3086 283.972 34.9805C284.428 33.6523 285.079 32.5 285.925 31.5234C286.784 30.5469 287.826 29.7982 289.05 29.2773C290.274 28.7435 291.654 28.4766 293.191 28.4766C294.688 28.4766 296.016 28.724 297.175 29.2188C298.334 29.7135 299.304 30.4167 300.085 31.3281C300.879 32.2396 301.478 33.3333 301.882 34.6094C302.286 35.8724 302.487 37.2786 302.487 38.8281V41.1719H285.691V37.4219H296.96V36.9922C296.96 36.2109 296.817 35.5143 296.53 34.9023C296.257 34.2773 295.84 33.7826 295.28 33.418C294.721 33.0534 294.004 32.8711 293.132 32.8711C292.39 32.8711 291.752 33.0339 291.218 33.3594C290.684 33.6849 290.248 34.1406 289.909 34.7266C289.584 35.3125 289.336 36.0026 289.167 36.7969C289.011 37.5781 288.933 38.4375 288.933 39.375V40.1562C288.933 41.0026 289.05 41.7839 289.284 42.5C289.532 43.2161 289.877 43.8346 290.32 44.3555C290.775 44.8763 291.322 45.2799 291.96 45.5664C292.611 45.8529 293.347 45.9961 294.167 45.9961C295.183 45.9961 296.127 45.8008 296.999 45.4102C297.885 45.0065 298.646 44.401 299.284 43.5938L302.019 46.5625C301.576 47.2005 300.971 47.8125 300.202 48.3984C299.447 48.9844 298.536 49.4661 297.468 49.8438C296.4 50.2083 295.183 50.3906 293.816 50.3906Z" fill="black"/>
</svg>
